<?xml version="1.0" standalone="no"?>
<!DOCTYPE svg PUBLIC "-//W3C//DTD SVG 20010904//EN"
 "http://www.w3.org/TR/2001/REC-SVG-20010904/DTD/svg10.dtd">
<svg version="1.0" xmlns="http://www.w3.org/2000/svg"
 width="1104.000000pt" height="1302.000000pt" viewBox="0 0 1104.000000 1302.000000"
 preserveAspectRatio="xMidYMid meet">

<g transform="translate(0.000000,1302.000000) scale(0.100000,-0.100000)"
fill="#000000" stroke="none">
<path d="M5631 12085 c-41 -47 -48 -95 -26 -159 10 -28 21 -55 25 -61 13 -16
60 -137 60 -152 0 -7 18 -36 39 -63 22 -27 42 -63 46 -80 4 -16 11 -30 16 -30
5 0 9 -5 9 -11 0 -6 -8 -8 -18 -5 -13 5 -28 -8 -57 -46 -51 -67 -94 -112 -123
-127 -22 -12 -22 -14 -17 -144 3 -72 11 -137 17 -144 6 -7 12 -48 13 -91 2
-94 18 -124 102 -190 33 -26 83 -66 111 -89 43 -34 109 -70 284 -155 10 -4 26
-8 37 -8 42 0 50 -9 39 -46 -5 -19 -8 -49 -6 -67 l4 -32 11 25 c7 14 12 21 12
15 1 -5 11 9 22 33 25 50 36 49 19 -3 -10 -31 -9 -39 4 -54 9 -10 16 -22 16
-28 0 -16 26 -23 39 -10 18 18 53 19 65 1 10 -14 14 -13 39 6 22 18 27 19 27
6 0 -20 14 -20 45 0 23 15 25 15 25 0 0 -13 9 -15 57 -10 32 3 62 9 67 14 6 6
20 10 33 10 17 0 21 -4 16 -16 -6 -17 3 -17 267 1 91 6 200 -8 277 -35 68 -24
63 -23 63 -6 0 20 -80 71 -135 86 -25 7 -45 17 -45 21 0 5 47 9 104 9 111 0
133 5 244 56 80 37 145 97 163 153 12 35 6 122 -23 358 -9 70 -9 108 0 160 7
37 13 84 14 103 2 60 46 229 69 268 12 20 53 69 92 108 60 62 70 77 74 116 6
55 -16 103 -52 112 -14 4 -30 4 -35 1 -4 -3 -10 0 -12 6 -3 10 -41 17 -123 21
-22 1 -46 8 -55 16 -9 9 -15 11 -18 4 -2 -6 -9 -9 -17 -6 -7 3 -16 1 -20 -5
-8 -14 -45 -14 -45 0 0 8 -12 9 -37 3 -58 -11 -146 -13 -166 -2 -24 12 -34 3
-18 -16 10 -12 9 -19 -8 -37 -12 -13 -21 -29 -21 -36 0 -7 -9 -13 -20 -13 -11
0 -20 7 -20 16 0 8 3 13 8 11 4 -3 7 5 7 18 0 19 -3 21 -22 12 -16 -7 -27 -6
-37 3 -13 10 -17 8 -27 -14 -13 -28 -49 -36 -49 -11 0 8 5 15 10 15 6 0 10 7
10 15 0 8 -4 15 -9 15 -5 0 -11 9 -14 20 -6 23 -37 17 -37 -6 0 -8 -9 -14 -21
-14 -16 0 -19 4 -14 21 6 17 3 20 -12 17 -11 -2 -17 -11 -16 -24 2 -15 -3 -20
-19 -19 -26 2 -37 25 -13 25 9 0 13 5 10 10 -9 14 -21 12 -38 -5 -13 -13 -16
-13 -27 0 -7 8 -26 15 -43 15 -17 0 -27 3 -24 7 4 3 -2 13 -14 21 -11 8 -23
11 -27 7 -4 -3 1 -11 11 -16 16 -9 16 -11 1 -27 -15 -15 -18 -14 -34 5 -27 34
-68 40 -86 14 -19 -27 -27 -26 -39 1 -6 11 -20 25 -32 29 -19 7 -23 5 -23 -11
0 -12 -7 -20 -16 -20 -13 0 -14 -3 -5 -13 13 -16 5 -28 -15 -20 -17 6 -18 -9
-2 -25 6 -6 8 -15 4 -19 -4 -4 -11 -1 -16 6 -5 9 -8 1 -7 -22 1 -31 4 -36 19
-31 14 4 16 1 11 -13 -3 -10 -11 -24 -16 -31 -8 -10 -7 -16 2 -21 10 -7 10
-12 0 -30 -15 -22 -44 -30 -36 -8 2 6 10 11 16 10 6 -2 11 3 11 11 0 8 -10 16
-22 18 -17 2 -27 14 -36 46 -10 30 -19 42 -33 42 -23 0 -37 29 -19 40 16 10 4
31 -14 24 -7 -3 -18 7 -24 21 -7 15 -20 25 -34 26 -67 3 -100 9 -112 18 -8 6
-20 9 -29 5 -10 -3 -20 2 -27 16 -6 11 -15 18 -21 14 -5 -3 -16 0 -24 6 -8 7
-20 10 -27 7 -7 -2 -21 3 -31 11 -15 13 -20 14 -26 3 -10 -16 -31 -6 -31 15 0
13 -13 19 -34 15 -5 -1 -16 4 -25 12 -25 22 -67 29 -178 33 l-102 3 -30 -34z
m707 -160 c-3 -3 -9 2 -12 12 -6 14 -5 15 5 6 7 -7 10 -15 7 -18z m372 21 c0
-3 -4 -8 -10 -11 -5 -3 -10 -1 -10 4 0 6 5 11 10 11 6 0 10 -2 10 -4z m-20
-55 c-1 -13 -4 -12 -15 3 -8 11 -15 27 -15 35 1 13 4 12 15 -3 8 -11 15 -27
15 -35z m-90 -21 c0 -6 -7 -13 -15 -16 -12 -5 -12 -10 2 -32 l17 -27 -21 18
c-11 10 -23 29 -26 43 -3 20 0 24 19 24 13 0 24 -5 24 -10z m420 -20 c0 -5 -4
-10 -10 -10 -5 0 -10 5 -10 10 0 6 5 10 10 10 6 0 10 -4 10 -10z m114 -11 c-3
-5 -10 -7 -15 -3 -5 3 -7 10 -3 15 3 5 10 7 15 3 5 -3 7 -10 3 -15z m117 -27
c-6 -2 -11 -10 -11 -18 0 -8 -5 -14 -11 -14 -6 0 -8 7 -5 16 3 9 6 23 6 31 0
13 2 13 16 2 10 -8 12 -15 5 -17z m-543 -30 c25 -1 28 8 10 26 -9 9 -9 12 0
12 7 0 15 -7 18 -15 4 -8 10 -13 14 -10 5 3 6 -4 3 -15 -3 -11 -10 -17 -15
-14 -6 4 -13 2 -17 -4 -12 -19 -50 -1 -66 31 l-15 31 22 -20 c13 -11 33 -21
46 -22z m-138 -2 c0 -5 -4 -10 -9 -10 -6 0 -13 5 -16 10 -3 6 1 10 9 10 9 0
16 -4 16 -10z m67 -12 c-3 -8 -6 -5 -6 6 -1 11 2 17 5 13 3 -3 4 -12 1 -19z
m153 -8 c0 -5 -4 -10 -10 -10 -5 0 -10 5 -10 10 0 6 5 10 10 10 6 0 10 -4 10
-10z m390 -14 c0 -3 -4 -8 -10 -11 -5 -3 -10 -1 -10 4 0 6 5 11 10 11 6 0 10
-2 10 -4z m53 -17 c-7 -7 -19 -8 -30 -4 -16 7 -15 9 7 15 30 8 38 4 23 -11z
m70 -5 c9 -4 17 -10 17 -15 0 -12 -17 -11 -25 1 -4 6 -15 8 -26 5 -10 -4 -19
-2 -19 3 0 14 13 23 24 17 6 -3 19 -8 29 -11z m-743 -35 c0 -6 -4 -7 -10 -4
-5 3 -10 11 -10 16 0 6 5 7 10 4 6 -3 10 -11 10 -16z m15 -39 c3 -5 1 -10 -4
-10 -6 0 -11 5 -11 10 0 6 2 10 4 10 3 0 8 -4 11 -10z m-711 -445 c-6 -16 -24
-21 -24 -7 0 11 11 22 21 22 5 0 6 -7 3 -15z m686 -729 c0 -2 -8 -10 -17 -17
-16 -13 -17 -12 -4 4 13 16 21 21 21 13z"/>
<path d="M1947 11943 c-3 -4 -8 -26 -12 -48 -4 -22 -13 -65 -20 -95 -16 -61
-71 -311 -90 -405 -26 -126 -31 -138 -87 -175 -29 -19 -98 -81 -154 -137 -81
-83 -107 -103 -130 -103 -16 0 -48 -5 -72 -10 -24 -6 -91 -17 -150 -26 -372
-54 -462 -68 -462 -74 0 -4 103 -78 229 -166 127 -87 230 -164 230 -170 1 -6
-7 -38 -18 -70 -30 -97 -36 -143 -16 -150 9 -4 18 -4 21 -1 3 3 21 52 40 108
35 103 69 164 216 386 125 191 222 297 347 380 108 72 194 89 264 54 23 -12
37 -15 37 -7 0 20 -38 74 -60 86 -34 18 -15 24 34 10 27 -7 58 -27 80 -49 35
-36 37 -42 46 -132 13 -122 14 -129 62 -229 48 -99 131 -224 196 -295 25 -27
62 -70 82 -95 39 -49 189 -179 230 -200 14 -7 65 -42 113 -77 64 -45 95 -61
110 -58 22 5 65 -18 179 -96 29 -20 110 -72 181 -115 390 -240 385 -237 394
-303 5 -38 11 -45 57 -72 28 -16 59 -27 69 -25 9 2 17 -2 17 -8 0 -7 9 -21 20
-31 11 -10 20 -22 20 -26 0 -5 -23 -33 -50 -62 -53 -57 -132 -162 -126 -168 2
-2 -25 -28 -60 -58 -59 -49 -67 -53 -100 -47 -46 9 -52 27 -21 68 36 48 58 95
51 111 -2 7 -21 21 -40 30 -19 9 -37 23 -40 30 -2 7 6 38 19 68 29 64 45 136
25 105 -73 -107 -83 -113 -121 -72 -13 14 -54 33 -100 47 -43 13 -86 31 -95
40 -9 8 -21 16 -27 17 -28 6 -45 14 -45 23 0 5 -3 8 -7 7 -18 -4 -63 26 -59
39 3 7 -1 13 -8 13 -7 0 -19 7 -26 15 -7 8 -22 15 -34 15 -45 0 -125 65 -126
103 0 9 -3 17 -7 17 -3 0 -40 -37 -82 -82 -84 -90 -151 -138 -193 -138 -36 0
-108 29 -105 42 2 9 -196 106 -252 123 -39 12 -16 -10 54 -51 76 -44 67 -26
181 -374 42 -129 78 -236 79 -238 6 -8 225 71 225 81 0 16 -57 186 -70 209
-13 24 -13 28 4 28 32 0 24 20 -19 47 -24 15 -44 31 -45 35 0 4 16 10 35 14
29 5 44 0 110 -42 42 -27 115 -74 164 -104 49 -30 99 -62 112 -71 l24 -17 -28
-26 -28 -26 28 -23 c15 -13 54 -36 86 -52 31 -15 57 -31 57 -36 0 -18 77 -32
111 -20 62 21 63 20 104 -106 43 -138 114 -322 151 -396 41 -81 221 -351 244
-365 43 -26 148 -59 210 -66 36 -4 105 -2 154 4 49 6 90 9 92 7 2 -2 9 -143
14 -313 11 -313 37 -770 47 -811 6 -26 11 -27 46 -14 24 9 48 60 62 129 9 45
51 83 100 90 22 3 103 5 180 4 158 -2 179 4 146 39 -32 35 -26 46 32 53 81 10
247 48 247 57 0 5 12 6 28 3 15 -3 63 2 107 10 101 20 98 20 91 -7 -10 -42 47
-260 83 -317 36 -56 85 -120 93 -120 4 0 22 9 40 20 18 11 36 20 39 20 10 0
259 -456 259 -473 0 -26 94 -175 114 -181 14 -4 17 -11 13 -32 -4 -22 14 -68
39 -103 7 -9 55 31 68 58 11 21 12 31 3 40 -7 7 -7 11 -1 11 6 0 17 -11 24
-25 8 -14 22 -25 34 -25 30 0 104 -146 112 -221 5 -46 4 -57 -10 -62 -9 -4
-16 -14 -16 -24 0 -12 -16 -24 -46 -37 -39 -16 -49 -17 -70 -6 -13 8 -24 19
-24 27 0 7 -7 13 -15 13 -8 0 -15 5 -15 10 0 13 13 13 27 -1 8 -8 23 -1 57 27
80 66 70 80 -29 39 l-60 -25 -16 21 c-22 29 -59 12 -52 -24 4 -19 -3 -29 -32
-47 -43 -27 -63 -20 -78 24 -10 31 8 65 27 46 5 -5 19 -10 29 -10 14 0 18 5
14 20 -4 16 4 23 47 38 28 11 62 23 76 27 29 9 50 24 50 36 0 12 -43 11 -76
-1 -24 -9 -30 -7 -53 19 -24 29 -28 30 -51 16 -19 -11 -21 -14 -7 -15 11 0 17
-8 17 -23 0 -27 -15 -47 -53 -71 -26 -16 -30 -16 -46 -2 -10 9 -23 16 -29 16
-7 0 -12 4 -12 9 0 10 43 47 63 54 8 3 5 17 -10 48 -24 46 -24 46 22 74 16 9
15 12 -3 28 -19 18 -20 18 -18 0 0 -10 -6 -18 -14 -18 -8 -1 -26 -8 -40 -17
-14 -9 -37 -22 -52 -29 -34 -15 -47 -52 -41 -115 7 -75 8 -76 42 -56 17 9 33
13 38 8 4 -5 2 -11 -5 -13 -6 -3 -12 -11 -12 -18 0 -7 -16 -25 -35 -40 -29
-21 -34 -30 -24 -41 6 -8 23 -14 38 -14 48 0 53 -14 16 -43 -33 -26 -35 -31
-29 -70 3 -23 15 -66 27 -95 30 -76 79 -98 156 -71 34 12 37 19 19 37 -16 16
-19 102 -4 102 21 0 37 -40 30 -77 -5 -27 -4 -35 6 -31 8 2 17 11 20 19 4 8
12 25 19 37 10 20 10 27 -5 43 -23 25 -4 50 21 29 14 -12 18 -11 26 1 5 8 9
20 9 27 0 18 56 15 76 -5 13 -13 19 -14 22 -5 13 41 54 -14 56 -75 1 -27 5
-38 16 -38 17 0 17 6 1 84 -6 29 -11 69 -11 87 0 29 3 34 24 34 13 0 39 -6 58
-14 60 -25 158 0 158 40 0 22 -17 24 -41 5 -48 -37 -127 -34 -113 4 4 9 2 21
-4 28 -5 6 -11 33 -13 58 -4 44 7 69 30 69 36 0 15 68 -29 94 -17 9 -30 22
-30 27 0 11 -144 274 -187 343 -15 22 -28 35 -30 29 -3 -7 36 -87 86 -177 83
-150 100 -186 86 -186 -14 0 -85 52 -100 72 -9 13 -43 73 -76 133 -33 61 -72
121 -88 135 -26 24 -70 98 -199 335 -29 55 -58 105 -63 111 -10 12 3 26 34 37
14 5 24 -8 53 -66 20 -40 42 -79 49 -87 7 -8 27 -42 45 -75 18 -33 40 -72 48
-87 l16 -27 11 22 c9 19 18 22 60 21 28 -1 67 -6 88 -12 81 -22 144 29 78 62
-16 9 -44 35 -62 58 -18 24 -51 61 -74 83 -22 22 -58 62 -80 90 -66 82 -147
146 -160 124 -4 -5 -4 -13 -1 -18 3 -4 -6 -6 -20 -3 -17 3 -22 7 -14 12 17 10
3 30 -20 30 -10 0 -22 5 -26 11 -3 6 -17 9 -31 6 -25 -5 -23 -7 -111 113 -29
40 -63 73 -87 85 -78 40 -82 44 -65 55 8 5 31 10 50 10 19 0 55 7 80 15 25 8
62 17 82 20 44 7 70 29 61 53 -4 9 -21 34 -39 54 -19 21 -50 62 -70 93 -30 45
-41 54 -59 49 -13 -3 -27 1 -34 10 -8 9 -21 16 -30 16 -34 0 -141 100 -141
131 0 10 2 19 4 19 18 0 76 -34 95 -56 23 -26 25 -27 32 -8 5 14 1 25 -17 41
-13 12 -23 26 -22 30 2 4 -6 9 -17 12 -11 2 -31 12 -44 22 -13 11 -29 19 -35
19 -6 0 -29 16 -51 36 -22 20 -83 64 -135 99 -122 82 -144 101 -136 120 7 18
39 13 103 -16 57 -26 64 -24 23 6 -80 59 -207 81 -327 56 -49 -10 -57 -8 -115
20 -64 30 -114 33 -146 7 -7 -6 -16 -8 -20 -4 -10 11 35 45 120 90 93 49 125
79 154 142 44 98 35 161 -31 234 -43 48 -108 152 -140 226 -35 81 -50 104 -41
64 3 -14 3 -74 -2 -134 -6 -91 -5 -121 10 -180 16 -63 17 -74 4 -111 -8 -22
-22 -65 -30 -96 -9 -30 -34 -90 -56 -133 -22 -44 -40 -87 -40 -97 0 -17 -50
-99 -77 -127 -7 -7 -13 -18 -13 -23 0 -6 -4 -8 -9 -5 -5 4 -3 29 6 59 9 28 15
72 15 97 -3 126 -16 257 -27 276 -8 12 -10 26 -5 34 4 7 6 22 4 34 -13 76 -26
134 -36 153 -16 32 5 108 70 253 30 69 62 134 69 146 12 18 8 28 -38 95 -77
112 -135 161 -154 129 -12 -19 -27 -10 -22 13 5 20 5 20 -7 5 -16 -22 -46 -24
-46 -3 0 21 -13 19 -28 -5 -7 -11 -17 -20 -23 -20 -5 0 -7 5 -4 11 4 5 4 22 0
37 l-7 27 -18 -22 c-21 -27 -32 -30 -23 -6 4 10 2 14 -4 10 -6 -4 -20 4 -31
18 -22 28 -32 24 -33 -14 0 -14 -3 -20 -6 -13 -2 6 -12 12 -21 12 -9 0 -30 7
-47 16 -16 9 -39 17 -50 18 -13 1 -20 8 -21 21 0 11 -4 28 -9 39 -10 23 -12
92 -2 127 9 33 59 64 119 73 40 6 49 4 67 -15 16 -18 19 -30 15 -61 -4 -25 -3
-38 5 -38 6 0 11 7 11 15 0 20 12 19 42 -5 l25 -19 164 100 c90 54 164 104
164 109 0 5 -63 53 -140 106 -77 53 -176 121 -220 152 -44 31 -106 73 -137 95
-32 22 -62 45 -68 52 -8 10 -5 75 11 232 11 120 23 248 26 285 l5 66 -43 -8
c-24 -5 -96 -19 -159 -30 -66 -13 -120 -28 -127 -37 -7 -9 -13 -11 -18 -3 -3
5 -10 8 -15 5 -5 -3 -11 -1 -15 4 -3 6 3 15 13 20 14 7 18 18 15 43 -2 18 -5
49 -6 68 -2 39 -7 41 -167 61 -47 5 -113 17 -148 25 -94 21 -131 19 -136 -8
-9 -43 -38 -173 -43 -190 -14 -53 -23 -14 -79 342 -15 96 -30 179 -34 183 -4
5 -112 -115 -240 -265 -129 -150 -239 -280 -247 -288 -11 -13 -15 -12 -32 5
-10 11 -108 173 -217 360 -246 423 -425 729 -429 733 -2 2 -5 0 -8 -5z m1775
-1145 c20 20 27 13 15 -12 -7 -13 -15 -22 -19 -20 -9 6 -39 -52 -31 -60 4 -3
0 -6 -8 -6 -8 0 -20 14 -27 32 -11 29 -10 35 11 54 16 16 26 19 35 11 9 -7 16
-7 24 1z m-75 -4 c-3 -3 -12 -4 -19 -1 -8 3 -5 6 6 6 11 1 17 -2 13 -5z m3
-84 c9 -17 7 -22 -16 -30 -21 -8 -29 -8 -35 2 -5 8 -3 14 6 16 8 2 15 10 15
18 0 21 18 17 30 -6z m392 -731 c17 -9 18 -13 7 -20 -20 -12 -31 -11 -23 2 3
6 0 15 -7 20 -20 13 -1 11 23 -2z m-54 -344 c9 -8 -29 -75 -42 -75 -18 0 -21
25 -5 36 6 3 9 17 6 30 -4 21 -1 24 17 18 11 -4 22 -8 24 -9z m168 -162 c11
-11 34 -17 68 -18 117 -3 125 -5 136 -25 9 -17 6 -21 -26 -35 -42 -17 -130
-20 -139 -5 -5 8 -11 8 -19 0 -7 -5 -45 -9 -84 -9 -104 2 -121 33 -45 83 45
29 85 33 109 9z m-187 -153 c44 0 71 -4 73 -12 3 -8 23 -9 77 -2 62 9 73 8 81
-5 9 -14 11 -14 20 -1 8 12 12 12 18 2 7 -10 11 -10 20 1 12 13 22 14 152 3
16 -1 24 -7 21 -16 -2 -8 -4 -21 -5 -29 -2 -7 -10 -18 -20 -23 -10 -6 -24 -25
-32 -44 -8 -19 -18 -34 -23 -34 -5 0 -12 -13 -16 -30 -4 -16 -13 -30 -20 -30
-8 0 -16 -9 -20 -19 -12 -40 -174 -92 -234 -75 -14 4 -49 8 -78 8 -78 1 -90
19 -94 139 0 9 -8 17 -18 17 -14 0 -17 -6 -13 -31 4 -24 1 -30 -9 -27 -8 3
-12 12 -11 19 2 8 -6 44 -19 81 -12 36 -19 73 -16 81 3 8 19 18 36 22 18 4 28
11 25 17 -4 6 1 6 14 -1 11 -6 52 -11 91 -11z m-79 -234 c0 -9 -30 -14 -35 -6
-4 6 3 10 14 10 12 0 21 -2 21 -4z m526 -237 c-3 -16 -10 -72 -16 -122 -14
-130 -41 -277 -51 -277 -4 0 -15 10 -24 23 l-16 22 -19 -25 c-10 -14 -22 -21
-26 -17 -4 4 -2 7 4 7 7 0 12 5 12 10 0 6 -7 10 -15 10 -18 0 -20 26 -4 36 8
5 6 10 -5 16 -9 5 -14 13 -11 19 3 5 -1 6 -9 3 -18 -7 -21 -20 -6 -29 20 -12
11 -35 -12 -31 -13 3 -28 5 -34 5 -22 2 -64 47 -64 69 0 18 -4 22 -19 17 -11
-3 -22 -1 -26 5 -3 5 -1 10 6 10 10 0 10 3 0 13 -11 10 -14 10 -18 0 -8 -23
-23 -14 -23 13 0 21 -4 25 -20 21 -14 -4 -20 0 -20 13 0 21 25 44 40 35 5 -3
10 -1 10 4 0 6 -11 11 -25 11 -29 0 -29 0 -11 35 8 15 12 34 9 41 -3 8 1 14
11 14 9 0 16 7 16 15 0 10 10 15 31 15 19 0 28 4 24 11 -5 7 12 10 51 8 65 -2
151 9 174 22 8 5 32 9 54 9 38 0 38 -1 32 -31z m380 -14 c26 -24 26 -26 9 -45
-21 -23 -41 -13 -56 28 -18 46 6 55 47 17z m-351 -1115 c9 -15 -5 -71 -16 -64
-12 7 -12 74 0 74 6 0 13 -5 16 -10z m811 -54 c-1 -16 5 -21 26 -21 19 -1 25
2 18 9 -15 15 -12 36 4 36 16 0 29 -27 20 -41 -3 -5 0 -9 6 -9 6 0 13 7 16 15
10 25 25 17 18 -10 -5 -22 -2 -26 25 -31 23 -5 31 -12 31 -29 0 -23 27 -42 70
-48 22 -3 19 -6 -24 -26 -56 -27 -129 -26 -184 2 -18 9 -40 13 -48 10 -7 -3
-14 0 -14 6 0 6 5 11 10 11 6 0 10 5 10 11 0 6 -7 8 -16 5 -9 -4 -23 -1 -31 5
-7 7 -16 9 -20 5 -4 -3 -17 4 -31 16 -13 13 -27 22 -30 20 -4 -1 -8 5 -10 15
-3 25 57 66 75 51 7 -6 13 -7 13 -2 0 4 5 3 12 -4 7 -7 17 -12 23 -12 5 0 4 4
-4 9 -17 11 -6 30 17 28 11 0 18 -9 18 -21z m165 -18 c11 -21 11 -22 -4 -9
-10 7 -17 17 -17 22 0 15 9 10 21 -13z m-231 -188 c0 -5 -4 -10 -9 -10 -6 0
-13 5 -16 10 -3 6 1 10 9 10 9 0 16 -4 16 -10z m643 -467 c30 -54 71 -129 91
-168 19 -38 51 -96 70 -127 19 -32 31 -60 26 -63 -5 -3 -26 27 -46 67 -20 40
-44 84 -54 98 -9 14 -30 50 -47 80 -16 30 -49 90 -72 133 -24 42 -38 77 -33
77 5 0 35 -44 65 -97z m250 -425 c9 -18 30 -55 46 -83 16 -27 30 -58 30 -67 2
-33 -20 -18 -40 28 -11 26 -33 67 -49 91 -33 48 -37 63 -17 63 7 0 21 -15 30
-32z m107 -606 c0 -25 -33 -54 -53 -46 -28 10 -28 33 1 48 37 20 52 20 52 -2z
m-90 -54 c0 -10 -4 -18 -9 -18 -14 0 -41 30 -41 45 0 10 5 11 25 2 14 -7 25
-20 25 -29z m-72 -24 c-9 -9 -22 -14 -30 -11 -8 3 -4 8 12 15 35 15 37 14 18
-4z m-58 -55 c0 -13 -6 -11 -24 7 -9 8 -16 23 -16 32 1 14 5 12 20 -7 11 -13
20 -27 20 -32z m50 -22 c-1 -21 -1 -21 -15 -3 -8 10 -12 23 -9 28 9 14 24 -2
24 -25z"/>
<path d="M3970 9075 c0 -7 30 -13 34 -7 3 4 -4 9 -15 9 -10 1 -19 0 -19 -2z"/>
<path d="M5156 7635 c-9 -26 -7 -32 5 -12 6 10 9 21 6 23 -2 3 -7 -2 -11 -11z"/>
<path d="M6470 11926 c0 -2 7 -7 16 -10 8 -3 12 -2 9 4 -6 10 -25 14 -25 6z"/>
<path d="M7097 11923 c-12 -12 -7 -22 8 -17 8 4 15 10 15 15 0 11 -14 12 -23
2z"/>
<path d="M6420 11916 c0 -2 9 -6 20 -9 11 -3 18 -1 14 4 -5 9 -34 13 -34 5z"/>
<path d="M7155 11910 c-3 -5 -1 -10 4 -10 6 0 11 5 11 10 0 6 -2 10 -4 10 -3
0 -8 -4 -11 -10z"/>
<path d="M6460 11800 c0 -5 5 -10 10 -10 6 0 10 5 10 10 0 6 -4 10 -10 10 -5
0 -10 -4 -10 -10z"/>
<path d="M5676 11632 c-3 -9 -9 -23 -12 -29 -3 -7 1 -13 9 -13 20 0 40 47 22
53 -7 3 -16 -2 -19 -11z"/>
<path d="M2098 10788 c-14 -31 -29 -66 -33 -79 -14 -42 -75 -158 -137 -257
-144 -232 -345 -437 -494 -503 -37 -17 -69 -22 -135 -23 -68 0 -86 -3 -82 -14
10 -24 80 -52 132 -52 l50 0 -55 -124 c-55 -127 -61 -146 -45 -146 10 0 122
24 211 45 30 8 114 27 185 44 72 17 146 36 165 41 19 5 87 21 150 36 174 39
256 65 239 74 -28 15 -312 85 -449 110 -36 7 -96 12 -134 11 l-69 -1 76 71
c82 75 190 206 261 316 104 163 201 395 194 470 l-3 38 -27 -57z"/>
<path d="M5063 10690 c-40 -15 -88 -38 -108 -50 -39 -24 -100 -120 -114 -178
-5 -20 -24 -73 -44 -117 -19 -44 -45 -114 -58 -155 -21 -70 -22 -80 -11 -186
25 -231 11 -346 -60 -522 -17 -42 -37 -96 -44 -120 -13 -40 -12 -42 6 -32 26
14 160 170 160 186 0 8 5 14 10 14 6 0 10 7 10 15 0 19 27 32 113 55 39 10 90
28 112 39 21 12 50 21 64 21 15 0 38 15 63 42 44 48 46 54 17 63 l-21 7 23 24
c21 23 22 25 5 43 -26 28 -17 65 16 69 19 2 31 -3 43 -21 l16 -25 45 25 c51
29 84 68 115 138 30 67 22 127 -30 234 -23 47 -41 98 -41 115 0 86 -86 287
-129 301 -10 3 -26 14 -36 25 -23 26 -35 25 -122 -10z m-135 -817 c-2 -36 -7
-49 -21 -51 -25 -5 -32 25 -14 64 24 49 39 43 35 -13z"/>
<path d="M1816 10569 c-26 -30 -43 -75 -33 -85 11 -11 87 70 87 93 0 32 -23
29 -54 -8z"/>
<path d="M8770 10486 c-63 -34 -245 -131 -405 -215 -159 -85 -294 -158 -299
-162 -6 -6 3 -33 23 -70 18 -33 31 -62 29 -64 -29 -25 -241 -160 -413 -262
-229 -136 -458 -283 -469 -302 -4 -6 -22 -11 -40 -11 -18 0 -53 -10 -77 -23
-24 -13 -60 -29 -79 -37 -36 -14 -157 -96 -197 -133 -19 -17 -26 -19 -45 -8
-13 6 -37 11 -54 9 -16 -1 -45 4 -62 11 -25 11 -42 11 -78 2 -63 -16 -110 -5
-173 42 l-53 39 6 59 c7 57 6 59 -20 65 -15 4 -35 15 -45 25 -15 15 -34 19
-99 19 -49 0 -80 -4 -80 -10 0 -6 -6 -5 -14 2 -8 7 -12 15 -10 17 5 6 -75 69
-96 76 -11 4 -20 10 -20 15 0 5 -16 12 -35 16 -34 6 -133 -19 -188 -48 -18 -9
-18 -10 0 -23 16 -13 16 -14 1 -15 -18 0 -33 -33 -23 -50 3 -5 0 -10 -7 -10
-10 0 -9 -3 2 -10 8 -5 11 -12 7 -16 -4 -4 1 -13 11 -21 11 -9 13 -16 6 -19
-14 -6 14 -67 39 -83 14 -9 17 -8 17 9 0 11 -5 20 -11 20 -22 0 3 18 31 22 35
5 47 -6 30 -27 -10 -13 -8 -15 18 -15 17 0 32 -6 36 -15 3 -8 15 -15 27 -15
16 0 20 5 16 20 -8 29 31 26 65 -5 31 -29 38 -31 38 -10 0 8 -4 15 -8 15 -5 0
-7 13 -4 29 3 24 8 28 25 23 18 -5 19 -7 5 -10 -21 -4 -23 -17 -6 -28 6 -4 18
2 27 13 9 11 26 22 38 25 28 8 40 -24 22 -58 -10 -20 -10 -27 6 -44 23 -25 31
-25 38 0 3 11 2 20 -2 20 -4 0 -7 16 -7 35 1 30 4 35 21 33 17 -3 20 -10 18
-48 -1 -25 -4 -55 -8 -67 -5 -16 -3 -21 12 -20 21 2 31 -37 13 -57 -6 -8 -8
-30 -4 -54 5 -35 11 -42 44 -55 34 -13 39 -19 45 -58 10 -66 53 -148 86 -164
15 -8 43 -15 60 -15 41 0 120 38 126 60 2 9 20 25 40 35 19 11 39 29 44 41 4
13 35 42 69 65 39 28 66 56 78 81 12 26 23 38 39 38 12 0 28 7 37 15 8 8 20
15 26 15 36 0 195 114 261 188 39 43 229 163 492 311 124 70 329 190 381 223
69 44 92 47 108 13 14 -31 25 -31 63 1 l30 25 -27 -4 c-39 -6 -36 14 8 63 43
47 134 108 415 279 111 67 169 93 169 75 0 -35 -244 -226 -509 -400 -115 -75
-140 -104 -100 -112 33 -6 779 523 779 553 0 8 -5 17 -11 21 -6 3 -19 25 -29
49 -30 70 -69 125 -88 124 -9 0 -69 -29 -132 -63z m-2948 -1068 c-7 -7 -12 -8
-12 -2 0 14 12 26 19 19 2 -3 -1 -11 -7 -17z m971 -253 c-3 -9 -8 -14 -10 -11
-3 3 -2 9 2 15 9 16 15 13 8 -4z m-15 -40 c16 -35 16 -35 -14 -35 -27 0 -61
26 -49 38 3 4 13 -2 21 -12 8 -11 14 -15 14 -9 0 7 -4 15 -10 18 -16 10 -11
25 8 25 11 0 24 -11 30 -25z"/>
<path d="M6656 10220 c-6 -24 -10 -29 -13 -17 -3 12 -10 16 -24 12 -13 -4 -19
-2 -19 9 0 9 -4 16 -10 16 -5 0 -10 -6 -10 -14 0 -8 -6 -16 -14 -19 -8 -3 -16
-16 -19 -29 -4 -22 -5 -22 -11 -3 -4 12 -16 26 -26 33 -17 10 -19 7 -25 -38
-4 -28 -11 -50 -15 -50 -4 0 -18 15 -30 33 -13 19 -19 24 -16 12 21 -80 21
-81 1 -65 -17 14 -18 13 -13 -5 3 -11 9 -29 13 -40 7 -18 5 -17 -20 5 l-29 25
22 -38 22 -38 -22 6 c-22 7 -22 6 4 -21 l26 -29 -38 -45 c-26 -29 -35 -47 -28
-51 7 -5 -12 -32 -53 -75 -90 -96 -89 -95 -89 -104 0 -5 17 -14 38 -21 20 -6
53 -20 72 -30 19 -11 40 -19 47 -19 6 0 13 -5 15 -12 2 -6 31 -13 66 -16 34
-2 62 -8 62 -12 0 -4 21 -10 48 -14 26 -4 61 -9 77 -12 34 -6 80 -8 110 -4 11
1 45 -1 75 -4 51 -6 58 -5 89 22 39 32 35 52 -8 52 -16 0 -34 7 -41 15 -10 12
-6 19 21 42 18 16 48 43 67 61 41 38 48 39 77 12 l22 -21 64 81 c69 88 98 137
109 186 7 29 6 30 -21 26 -25 -4 -29 -1 -29 18 0 18 -4 21 -24 16 -13 -3 -38
-3 -55 0 -26 5 -29 9 -21 25 12 21 0 32 -25 23 -14 -6 -16 -3 -10 14 8 26 3
27 -36 7 -35 -19 -52 -11 -43 17 5 17 3 20 -10 15 -14 -6 -16 -3 -11 16 6 20
4 20 -20 -6 -21 -24 -26 -26 -31 -12 -6 13 -8 14 -15 3 -15 -22 -30 12 -24 55
3 20 3 37 0 37 -4 0 -18 -26 -32 -57 -23 -49 -27 -54 -34 -36 -4 12 -12 24
-18 28 -6 3 -11 15 -11 26 0 27 -42 22 -50 -6 -9 -33 -34 -24 -40 15 l-5 35
-9 -35z m-47 -362 c-17 -33 -20 -54 -17 -97 7 -75 3 -81 -44 -81 -46 0 -128
42 -128 65 0 26 117 128 170 148 37 14 40 7 19 -35z m251 -73 c20 -24 8 -50
-24 -50 -36 0 -56 26 -37 49 17 20 45 21 61 1z"/>
<path d="M4002 9705 c0 -16 2 -22 5 -12 2 9 2 23 0 30 -3 6 -5 -1 -5 -18z"/>
<path d="M4207 9713 c-4 -3 -7 -11 -7 -17 0 -6 5 -5 12 2 6 6 9 14 7 17 -3 3
-9 2 -12 -2z"/>
<path d="M4040 9688 c0 -19 2 -20 10 -8 13 19 13 30 0 30 -5 0 -10 -10 -10
-22z"/>
<path d="M4223 9685 c-13 -14 -19 -44 -7 -32 3 3 17 2 30 -3 25 -10 58 12 51
33 -5 17 -60 18 -74 2z"/>
<path d="M6211 9501 c-7 -5 -9 -11 -5 -13 16 -9 58 -2 62 10 4 14 -36 16 -57
3z"/>
<path d="M6280 9494 c0 -14 3 -14 15 -4 8 7 15 14 15 16 0 2 -7 4 -15 4 -8 0
-15 -7 -15 -16z"/>
<path d="M3789 9460 c-20 -21 -44 -55 -54 -73 -32 -60 4 -91 49 -42 27 29 76
120 76 141 0 27 -36 14 -71 -26z"/>
<path d="M6330 9480 c0 -5 5 -10 10 -10 6 0 10 5 10 10 0 6 -4 10 -10 10 -5 0
-10 -4 -10 -10z"/>
<path d="M2840 9450 c0 -5 5 -10 10 -10 6 0 10 5 10 10 0 6 -4 10 -10 10 -5 0
-10 -4 -10 -10z"/>
<path d="M2897 9433 c-15 -14 -6 -34 24 -52 55 -34 82 -1 33 38 -27 22 -46 26
-57 14z"/>
<path d="M5676 9423 c-10 -25 -7 -33 12 -33 10 0 23 -5 30 -12 6 -6 14 -9 17
-6 3 3 -8 19 -24 35 -23 23 -31 27 -35 16z"/>
<path d="M2995 9360 c-3 -5 -1 -10 4 -10 6 0 11 5 11 10 0 6 -2 10 -4 10 -3 0
-8 -4 -11 -10z"/>
<path d="M5600 9331 c0 -11 5 -23 10 -26 6 -4 10 5 10 19 0 14 -4 26 -10 26
-5 0 -10 -9 -10 -19z"/>
<path d="M5735 9340 c-3 -5 1 -10 9 -10 9 0 16 5 16 10 0 6 -4 10 -9 10 -6 0
-13 -4 -16 -10z"/>
<path d="M3036 9322 c-9 -15 4 -42 19 -42 23 0 26 16 6 34 -11 10 -22 13 -25
8z"/>
<path d="M6146 9305 c-9 -23 -8 -25 9 -25 17 0 19 9 6 28 -7 11 -10 10 -15 -3z"/>
<path d="M5745 9300 c-3 -5 -1 -10 4 -10 6 0 11 5 11 10 0 6 -2 10 -4 10 -3 0
-8 -4 -11 -10z"/>
<path d="M5520 9265 c0 -9 5 -15 11 -13 6 2 11 8 11 13 0 5 -5 11 -11 13 -6 2
-11 -4 -11 -13z"/>
<path d="M5706 9265 c-3 -9 0 -15 9 -15 16 0 20 16 6 24 -5 3 -11 -1 -15 -9z"/>
<path d="M5780 9260 c0 -5 5 -10 10 -10 6 0 10 5 10 10 0 6 -4 10 -10 10 -5 0
-10 -4 -10 -10z"/>
<path d="M5875 9254 c9 -9 18 -14 21 -11 9 9 -6 27 -22 27 -13 0 -13 -2 1 -16z"/>
<path d="M5525 9200 c-3 -5 3 -10 14 -10 12 0 21 5 21 10 0 6 -6 10 -14 10 -8
0 -18 -4 -21 -10z"/>
<path d="M5481 9184 c0 -11 3 -14 6 -6 3 7 2 16 -1 19 -3 4 -6 -2 -5 -13z"/>
<path d="M5083 8920 c-15 -6 -23 -18 -23 -34 0 -19 9 -27 40 -40 22 -9 46 -16
52 -16 6 0 53 -21 104 -46 84 -42 184 -69 184 -49 0 28 -57 98 -106 130 -87
58 -188 80 -251 55z"/>
<path d="M8034 8905 c5 -20 3 -25 -13 -25 -37 0 -79 -138 -49 -156 21 -13 5
-25 -23 -19 -28 6 -30 5 -25 -13 4 -11 2 -23 -4 -27 -5 -3 -10 -19 -10 -36 0
-18 -5 -29 -14 -29 -19 0 -25 -20 -15 -47 6 -17 5 -23 -6 -23 -9 0 -29 -15
-45 -32 -23 -26 -28 -39 -24 -60 9 -46 -19 -33 -56 25 -39 61 -60 81 -115 108
-22 11 -74 37 -115 59 -41 21 -100 46 -130 55 -30 9 -70 23 -89 32 -64 29 -95
22 -200 -45 l-55 -35 54 -18 c30 -10 72 -19 92 -19 20 0 38 -4 40 -8 4 -11
172 -52 209 -52 38 0 103 -31 141 -68 18 -17 58 -54 89 -82 55 -49 75 -91 62
-128 -6 -14 -56 -9 -105 10 -32 12 -80 -4 -142 -46 -21 -14 -44 -22 -52 -19
-9 3 -18 -5 -25 -26 -6 -17 -15 -31 -20 -31 -5 0 -9 -7 -9 -15 0 -13 -19 -20
-43 -16 -4 1 -15 -12 -25 -29 -9 -16 -25 -33 -35 -36 -24 -8 -107 5 -107 16 0
5 -9 11 -19 15 -25 8 -111 90 -111 105 0 7 -7 10 -15 6 -9 -3 -15 0 -15 8 0 7
-7 19 -15 26 -23 19 -18 48 8 53 23 4 -83 12 -118 8 -11 -1 -34 -3 -52 -5 -33
-3 -83 -30 -83 -46 0 -5 19 -15 43 -22 23 -6 56 -21 72 -32 17 -12 32 -22 34
-24 3 -1 5 -18 4 -37 -1 -30 2 -33 26 -32 21 2 26 -3 28 -23 0 -14 1 -31 2
-39 1 -7 7 -11 16 -7 9 3 15 0 15 -9 0 -8 9 -15 20 -15 12 0 29 -15 45 -39 13
-22 32 -44 42 -49 9 -6 22 -25 28 -43 6 -18 20 -37 31 -43 10 -6 35 -22 54
-36 40 -29 65 -44 100 -62 14 -6 38 -21 53 -31 20 -14 35 -17 55 -11 15 4 42
8 60 9 18 1 42 11 55 22 12 11 41 23 64 27 36 5 43 3 48 -13 14 -46 1 -127
-32 -196 -18 -38 -33 -80 -33 -92 0 -13 -5 -23 -10 -23 -6 0 -18 -15 -27 -34
-9 -19 -24 -37 -34 -39 -12 -3 -19 -14 -19 -29 0 -17 -3 -19 -9 -9 -6 9 -11
-3 -16 -38 -4 -28 -11 -53 -16 -57 -5 -3 -9 -15 -9 -27 0 -12 -34 -73 -76
-135 l-77 -112 18 -41 c12 -26 46 -63 96 -105 l77 -64 73 77 c41 42 111 113
157 158 82 82 100 112 63 102 -26 -6 -47 18 -71 82 -16 42 -17 51 -6 51 8 0
17 12 21 28 5 26 10 28 158 59 170 36 237 47 237 40 0 -3 -7 -12 -15 -21 -14
-14 -10 -15 37 -10 29 3 72 10 95 16 l43 10 -5 52 c-3 28 -9 76 -13 106 -11
76 -7 84 42 111 25 13 47 33 53 48 9 24 19 28 109 44 54 10 124 30 154 44 30
14 84 36 120 48 202 72 265 93 272 89 4 -3 12 -19 17 -37 8 -27 9 -21 10 41 1
69 0 72 -18 62 -11 -5 -57 -22 -103 -36 -46 -14 -92 -29 -103 -34 -11 -4 -78
-26 -150 -48 -71 -22 -185 -58 -253 -79 -99 -30 -131 -45 -164 -75 -36 -33
-92 -57 -104 -46 -2 3 12 34 31 69 79 143 149 293 215 464 57 145 75 205 93
308 l22 128 -70 64 c-136 125 -350 285 -382 285 -11 0 -13 -7 -9 -25z m-94
-281 c0 -8 -4 -12 -10 -9 -5 3 -10 10 -10 16 0 5 5 9 10 9 6 0 10 -7 10 -16z
m-950 -414 c0 -5 -2 -10 -4 -10 -3 0 -8 5 -11 10 -3 6 -1 10 4 10 6 0 11 -4
11 -10z m1210 -871 c0 -5 -17 -9 -37 -8 l-38 1 30 13 c30 13 45 11 45 -6z"/>
<path d="M10290 8403 c-8 -3 -33 -14 -55 -25 -85 -43 -322 -151 -370 -168 -27
-11 -75 -23 -106 -29 -31 -5 -83 -19 -115 -31 -32 -12 -79 -27 -104 -34 l-45
-12 4 -107 c2 -74 0 -107 -8 -107 -6 0 -11 6 -11 13 0 18 -41 89 -72 126 l-27
31 -103 -38 -103 -39 -3 -109 c-4 -139 0 -154 37 -154 41 0 93 39 117 88 11
23 23 39 27 36 11 -12 8 -254 -3 -254 -5 0 -10 7 -10 16 0 9 -9 31 -20 49 -21
35 -63 55 -112 55 l-29 0 2 -155 c0 -85 4 -157 8 -159 8 -5 262 46 278 57 6 4
17 30 24 57 14 56 29 49 29 -12 0 -31 4 -38 20 -38 24 0 24 -12 9 298 -10 198
-10 235 2 247 12 11 239 105 254 105 16 0 377 187 444 230 89 57 108 87 41 63z"/>
<path d="M2100 8290 c0 -5 5 -10 10 -10 6 0 10 5 10 10 0 6 -4 10 -10 10 -5 0
-10 -4 -10 -10z"/>
<path d="M2245 8282 c-3 -3 14 -26 37 -50 47 -49 39 -47 -39 10 -29 21 -60 38
-69 38 -14 0 -77 -40 -94 -60 -3 -3 -27 -23 -55 -45 l-50 -38 53 53 c51 51 66
77 38 67 -7 -3 -18 -1 -24 5 -6 6 -14 3 -23 -10 -8 -10 -32 -25 -54 -33 -22
-7 -44 -17 -50 -21 -5 -4 -23 -8 -40 -8 -16 0 -38 -7 -48 -14 -10 -8 -26 -12
-36 -9 -9 2 -23 -2 -29 -10 -21 -25 -111 -12 -144 21 -16 14 -28 31 -28 38 0
21 -15 24 -44 8 -35 -18 -33 -18 -39 6 -7 26 -24 26 -32 -1 -9 -27 -47 -22
-60 9 -5 12 -15 22 -22 22 -17 0 -16 -39 1 -81 15 -38 28 -109 19 -109 -3 0
-17 7 -32 16 -21 13 -26 22 -23 44 3 20 -4 36 -27 61 l-31 34 11 -33 c6 -17
15 -35 20 -38 5 -3 9 -10 9 -16 0 -6 -11 -1 -24 11 -13 13 -32 21 -43 19 -24
-4 -30 -69 -9 -100 16 -22 22 -58 10 -58 -35 0 -67 61 -58 109 8 38 -13 51
-35 22 -11 -14 -23 -20 -34 -15 -12 4 -17 1 -17 -13 0 -11 -14 -32 -30 -48
-31 -29 -45 -67 -54 -140 -2 -22 -9 -60 -15 -85 -14 -61 -19 -150 -9 -156 5
-3 6 -15 2 -27 -4 -12 -7 -34 -6 -48 1 -14 -7 -35 -18 -47 -11 -11 -17 -27
-14 -35 3 -8 -4 -32 -14 -53 -29 -59 -107 -224 -126 -268 -19 -44 -14 -135 10
-173 40 -63 202 -204 282 -243 44 -22 55 -23 257 -22 217 1 296 12 363 46 18
9 36 24 39 32 3 8 18 21 34 30 16 8 29 19 29 24 0 13 42 54 103 99 63 47 127
108 127 122 0 6 -18 -7 -40 -28 -35 -32 -48 -38 -85 -38 -51 -1 -67 19 -35 42
11 8 20 19 20 24 0 15 42 69 54 69 5 0 17 6 25 13 9 8 32 20 51 27 19 7 49 23
66 36 17 13 60 32 95 42 35 11 98 30 139 43 145 44 210 110 149 152 -26 19 -7
32 20 15 11 -7 23 -9 27 -5 15 14 -17 31 -60 32 -25 1 -51 7 -59 14 -29 23
-67 110 -67 151 0 47 -15 52 -56 17 l-27 -23 27 -78 c26 -73 26 -79 11 -96
-15 -16 -15 -24 -5 -55 11 -33 10 -39 -9 -56 -11 -11 -32 -24 -47 -29 -24 -9
-30 -6 -68 34 -39 42 -79 66 -112 66 -8 0 -12 -4 -9 -10 10 -16 -18 -12 -43 6
-19 13 -26 14 -40 2 -9 -7 -20 -18 -25 -25 -4 -7 -24 -15 -44 -19 -20 -4 -48
-13 -62 -20 -14 -8 -33 -14 -42 -14 -8 0 -20 -5 -27 -12 -7 -7 -12 -8 -12 -3
0 4 -8 1 -18 -8 -11 -10 -41 -18 -79 -20 -33 -2 -66 -7 -72 -11 -6 -4 -11 -2
-11 3 0 18 -42 12 -56 -6 -9 -13 -13 -14 -14 -4 0 8 -6 11 -16 7 -20 -8 -54
10 -54 28 0 18 -20 25 -55 19 -18 -4 -26 -2 -22 4 4 6 0 16 -8 23 -19 16 -19
30 0 30 10 0 15 7 13 17 -2 10 3 18 10 19 6 1 17 2 23 3 5 0 7 6 4 11 -6 10 9
13 60 10 62 -3 316 80 475 155 252 119 452 178 645 190 140 9 182 -1 229 -57
51 -59 49 -114 -6 -174 -11 -12 -27 -37 -37 -55 -25 -48 -123 -125 -207 -165
-74 -35 -84 -46 -84 -95 0 -21 -13 -44 -43 -77 -48 -52 -80 -104 -91 -145 -9
-38 3 -97 20 -97 8 0 32 -12 54 -26 41 -28 67 -26 76 3 9 29 21 48 30 48 16 1
74 35 74 44 0 4 -9 16 -20 26 -25 23 -26 35 0 28 14 -4 22 2 30 21 10 28 29
33 48 14 9 -9 18 -9 36 0 17 7 27 8 31 1 4 -5 24 17 46 51 21 33 45 60 53 60
10 0 13 -6 9 -17 -4 -11 -3 -14 5 -9 7 4 12 13 12 20 0 18 85 96 105 96 8 0
65 -42 127 -92 62 -51 136 -110 164 -130 45 -33 50 -40 46 -70 -3 -29 2 -38
37 -66 23 -18 41 -38 41 -44 0 -6 -9 -3 -21 8 -17 15 -22 16 -29 4 -6 -10 0
-19 21 -32 33 -20 36 -35 12 -54 -17 -12 -16 -13 5 -14 28 0 68 -26 133 -86
51 -46 103 -63 138 -45 19 10 21 9 21 -13 0 -58 33 -31 85 68 21 41 42 65 70
82 22 13 60 44 84 69 24 25 51 45 61 45 10 0 23 7 30 15 15 18 43 19 72 4 18
-10 20 -9 15 5 -3 8 -2 18 3 21 15 9 34 -4 52 -35 19 -34 38 -37 74 -13 21 13
30 14 45 5 10 -7 21 -12 24 -12 13 0 -2 71 -28 127 -5 12 -23 27 -39 32 -25 9
-33 7 -54 -14 -13 -13 -24 -31 -24 -39 0 -8 -5 -18 -12 -22 -8 -5 -9 -2 -5 9
5 13 1 17 -14 17 -11 0 -17 4 -14 10 4 6 1 17 -5 26 -7 8 -13 32 -14 54 0 22
-6 42 -13 44 -10 4 -10 11 -2 30 9 20 9 28 -4 40 -9 9 -19 25 -22 36 -3 11
-10 20 -13 20 -4 0 -13 19 -20 43 -11 37 -20 47 -58 65 -71 35 -125 26 -145
-25 -10 -27 -23 -28 -87 -2 -42 17 -60 7 -89 -52 -20 -42 -24 -45 -81 -57 -33
-7 -65 -19 -72 -27 -7 -8 -15 -38 -19 -67 l-6 -53 -50 1 c-38 1 -66 11 -115
39 -36 21 -69 43 -75 49 -5 6 -47 42 -92 80 -46 38 -83 75 -83 82 0 7 26 38
57 69 l57 55 -32 33 c-39 40 -39 45 -6 57 32 13 26 33 -12 41 -78 15 -189 102
-227 176 -10 19 -26 32 -44 36 -16 3 -62 38 -108 82 -44 41 -102 89 -128 106
-27 16 -72 48 -100 71 -83 65 -149 104 -205 120 -28 9 -54 13 -57 10z m-1176
-698 c-20 -25 -32 -11 -20 23 1 1 8 0 16 -3 12 -5 13 -10 4 -20z m181 -4 c0
-5 -4 -10 -10 -10 -5 0 -10 5 -10 10 0 6 5 10 10 10 6 0 10 -4 10 -10z m-75
-20 c3 -5 -1 -10 -9 -10 -8 0 -18 5 -21 10 -3 6 1 10 9 10 8 0 18 -4 21 -10z
m60 -25 c1 -27 -3 -30 -32 -32 -42 -4 -51 13 -22 43 30 32 54 27 54 -11z
m2732 -286 c6 -6 9 -18 6 -27 -4 -9 -2 -13 4 -9 33 21 74 -46 55 -88 -30 -64
-99 -3 -101 88 0 48 12 60 36 36z m-1192 -19 c-3 -5 -10 -10 -16 -10 -5 0 -9
5 -9 10 0 6 7 10 16 10 8 0 12 -4 9 -10z m1080 -182 c49 -45 55 -68 25 -98
-40 -40 -120 -14 -92 31 19 30 14 39 -20 39 -18 0 -40 5 -48 10 -11 7 -4 11
28 16 36 6 42 10 42 31 0 28 4 26 65 -29z m-206 2 c8 0 12 -3 9 -6 -9 -8 -119
7 -113 16 2 4 24 4 47 -1 24 -4 49 -8 57 -9z m306 -20 c-3 -5 -11 -10 -16 -10
-6 0 -7 5 -4 10 3 6 11 10 16 10 6 0 7 -4 4 -10z m-405 -75 c0 -28 -8 -31 -35
-12 -21 16 -12 37 16 37 14 0 19 -7 19 -25z m150 2 c0 -7 16 -22 36 -35 42
-27 48 -40 35 -75 -13 -34 -53 -45 -86 -23 -20 13 -25 25 -25 55 0 22 6 44 15
51 11 9 12 16 5 25 -5 6 -7 15 -4 18 9 9 24 -1 24 -16z m-56 -132 c27 -42 21
-57 -21 -53 -31 2 -39 7 -41 26 -4 25 13 52 33 52 7 0 20 -11 29 -25z"/>
<path d="M9435 8083 c-11 -3 -24 -9 -29 -14 -5 -4 8 -3 30 2 58 16 57 26 -1
12z"/>
<path d="M10265 8034 c-55 -18 -106 -34 -113 -34 -7 0 -17 12 -22 26 -8 20
-15 24 -33 19 -110 -32 -384 -121 -393 -127 -9 -7 -8 -22 4 -58 13 -40 20 -50
38 -50 15 0 25 -8 31 -27 9 -26 10 -25 16 19 6 42 48 128 63 128 3 0 3 -13 -1
-28 -14 -65 35 -246 85 -314 37 -50 -19 -30 -85 31 -34 31 -37 31 -30 10 30
-100 38 -119 54 -119 43 0 290 41 333 56 50 16 55 25 38 68 -12 32 -9 34 138
76 81 24 112 38 112 49 0 8 -21 82 -47 163 -41 128 -50 148 -68 147 -11 0 -65
-16 -120 -35z m115 -63 c22 -23 40 -54 44 -75 8 -40 -7 -108 -28 -125 -11 -9
-14 -3 -14 37 -2 52 -22 118 -52 169 -17 29 -17 33 -3 33 9 0 33 -18 53 -39z
m-162 -44 c3 -44 17 -88 59 -186 13 -30 -61 24 -81 59 -27 46 -28 131 -2 159
11 12 20 21 20 21 1 0 2 -24 4 -53z m-157 1 c62 -48 84 -97 84 -188 0 -64 -4
-80 -25 -110 l-25 -35 -7 76 c-8 87 -38 187 -74 241 -13 21 -24 40 -24 43 0
14 33 1 71 -27z"/>
<path d="M6424 8003 c-15 -32 -38 -80 -51 -107 -12 -28 -23 -60 -23 -71 0 -12
-12 -32 -26 -46 -44 -40 -145 -181 -142 -198 2 -8 18 -18 36 -22 18 -4 41 -14
51 -23 22 -20 31 -12 31 28 0 52 11 76 36 82 34 9 44 33 44 111 1 96 15 146
60 213 42 62 50 90 25 90 -8 0 -26 -26 -41 -57z"/>
<path d="M8807 7741 c-82 -27 -152 -53 -155 -59 -4 -5 2 -104 13 -219 l21
-208 29 3 c59 6 241 56 287 79 l48 23 -6 148 c-3 81 -12 165 -19 187 -8 22
-16 52 -19 68 -8 36 -20 35 -199 -22z m172 -173 c28 -68 51 -126 51 -130 0
-11 -63 -29 -72 -20 -5 5 -17 31 -28 58 l-20 49 6 -62 c6 -55 4 -62 -14 -72
-33 -17 -40 -14 -63 32 -24 46 -38 36 -20 -14 13 -38 9 -46 -30 -54 -37 -8
-39 -6 -50 47 -15 75 -39 203 -39 211 0 8 62 37 79 37 6 0 20 -18 31 -40 11
-22 23 -40 26 -40 3 0 4 21 3 47 -3 44 -1 48 26 59 56 24 59 21 114 -108z"/>
<path d="M6446 7687 c3 -10 9 -15 12 -12 3 3 0 11 -7 18 -10 9 -11 8 -5 -6z"/>
<path d="M9670 7670 c-30 -11 -61 -22 -67 -25 -20 -7 1 -49 26 -55 16 -4 28
-19 40 -55 15 -45 21 -50 49 -53 29 -3 32 -1 32 23 0 14 -4 34 -9 43 -4 9 -11
29 -15 45 -5 21 -3 27 9 27 12 0 15 8 13 32 -2 17 -7 33 -13 34 -5 2 -35 -6
-65 -16z"/>
<path d="M8543 7653 c-8 -3 -13 -24 -13 -54 0 -36 -4 -49 -14 -49 -10 0 -17
16 -22 45 -5 35 -10 45 -25 45 -16 0 -19 -8 -19 -50 0 -38 -4 -52 -19 -60 -22
-11 -18 -50 5 -50 19 0 18 -39 -1 -46 -22 -9 -18 -42 5 -49 16 -5 20 -15 20
-50 0 -47 8 -59 34 -49 12 5 16 20 16 60 0 41 4 54 15 54 10 0 15 -10 15 -27
0 -52 11 -74 33 -71 19 3 21 9 18 54 -2 39 1 53 13 57 20 8 21 47 2 47 -25 0
-29 34 -7 49 26 17 27 37 1 51 -11 6 -20 21 -20 33 0 30 -11 67 -19 66 -3 0
-12 -3 -18 -6z m-9 -169 c8 -20 -1 -34 -20 -34 -8 0 -14 8 -14 18 0 33 23 44
34 16z"/>
<path d="M6310 7514 c-36 -18 -73 -34 -83 -34 -10 0 -17 -6 -15 -12 5 -14 69
-23 104 -14 45 12 110 98 72 95 -7 0 -42 -16 -78 -35z"/>
<path d="M4096 7422 c-7 -12 5 -51 29 -89 19 -33 38 -42 50 -23 4 6 11 7 17 4
17 -10 6 7 -37 63 -41 53 -50 60 -59 45z"/>
<path d="M6890 7386 c0 -2 41 -34 90 -72 50 -37 90 -71 90 -76 0 -4 4 -8 9 -8
6 0 6 12 0 30 -6 17 -14 30 -18 30 -4 0 -35 23 -69 50 -34 28 -71 50 -82 50
-11 0 -20 -2 -20 -4z"/>
<path d="M2270 7267 c-45 -21 -100 -62 -100 -73 0 -19 51 -124 60 -124 10 0
20 25 20 52 0 17 12 36 61 96 5 6 19 12 29 12 23 0 24 4 10 31 -12 21 -43 24
-80 6z"/>
<path d="M4170 7265 c-10 -13 -9 -15 9 -15 11 0 21 4 21 9 0 18 -18 21 -30 6z"/>
<path d="M5378 7211 c-75 -11 -78 -22 -22 -81 46 -49 49 -51 58 -31 6 14 5 30
-2 46 -6 14 -7 25 -2 25 5 0 12 -9 15 -20 8 -26 25 -26 25 -1 0 11 4 22 9 25
15 10 0 46 -18 45 -9 -1 -37 -5 -63 -8z"/>
<path d="M7904 7205 c-13 -11 -14 -13 -3 -9 17 5 34 -20 24 -37 -3 -4 -24 -13
-45 -19 -42 -11 -51 -24 -24 -34 8 -3 12 -11 8 -18 -10 -15 166 -4 261 17 109
24 225 58 225 66 0 14 -30 30 -52 28 -13 -1 -36 3 -51 10 -21 8 -46 8 -95 1
-86 -14 -206 -14 -210 -1 -5 15 -15 14 -38 -4z"/>
<path d="M7730 7132 c0 -22 4 -32 12 -30 18 6 20 22 3 43 -14 19 -14 18 -15
-13z"/>
<path d="M5465 7027 c17 -12 46 -37 66 -54 20 -18 40 -33 45 -33 5 0 26 -14
47 -31 44 -36 46 -32 12 25 -20 34 -40 50 -98 79 -82 41 -118 48 -72 14z"/>
<path d="M4720 6909 c0 -5 5 -7 10 -4 6 3 10 8 10 11 0 2 -4 4 -10 4 -5 0 -10
-5 -10 -11z"/>
<path d="M4725 6813 c14 -83 19 -100 43 -150 19 -38 32 -53 47 -53 38 0 48 14
40 59 -5 32 -11 41 -27 41 -14 0 -18 5 -13 19 3 10 -1 24 -10 31 -8 7 -15 19
-15 27 0 11 -7 14 -25 11 -22 -5 -25 -2 -25 23 0 16 -5 29 -10 29 -7 0 -9 -14
-5 -37z"/>
<path d="M5710 6785 c0 -5 5 -17 10 -25 5 -8 10 -10 10 -5 0 6 -5 17 -10 25
-5 8 -10 11 -10 5z"/>
<path d="M6765 6730 c-10 -20 -13 -36 -7 -47 8 -13 14 -10 35 23 20 28 23 40
14 46 -20 13 -26 10 -42 -22z"/>
<path d="M7950 6719 c0 -5 5 -7 10 -4 6 3 10 8 10 11 0 2 -4 4 -10 4 -5 0 -10
-5 -10 -11z"/>
<path d="M5750 6715 c0 -5 5 -17 10 -25 5 -8 10 -10 10 -5 0 6 -5 17 -10 25
-5 8 -10 11 -10 5z"/>
<path d="M8196 6699 c-11 -11 -17 -21 -14 -24 2 -3 13 4 23 15 24 26 16 33 -9
9z"/>
<path d="M7510 6688 c5 -13 14 -42 20 -65 12 -50 35 -60 25 -12 -7 29 -42 99
-51 99 -2 0 1 -10 6 -22z"/>
<path d="M5786 6647 c3 -10 9 -15 12 -12 3 3 0 11 -7 18 -10 9 -11 8 -5 -6z"/>
<path d="M4998 6643 c-33 -3 -48 -9 -48 -18 0 -9 -6 -12 -15 -9 -10 4 -15 0
-15 -15 0 -12 6 -21 13 -21 15 0 49 -64 40 -74 -13 -13 -23 -5 -23 20 0 30
-23 28 -28 -3 -5 -35 22 -46 112 -44 133 1 146 13 146 127 l0 44 -67 -2 c-38
-1 -89 -3 -115 -5z"/>
<path d="M5422 6632 c-10 -7 -8 -22 8 -72 25 -77 29 -214 7 -247 -11 -18 3
-63 20 -63 25 0 83 -52 104 -92 21 -41 29 -86 55 -303 21 -179 23 -185 71
-186 l38 -2 -45 -8 c-25 -5 -54 -10 -65 -12 -11 -2 -46 -12 -77 -22 -58 -19
-76 -35 -37 -35 14 0 19 -5 17 -17 -2 -12 -22 -21 -68 -31 -144 -29 -149 -30
-143 -16 2 7 -5 21 -16 31 -12 9 -21 23 -21 31 0 13 -63 15 -85 3 -5 -3 -37
-6 -70 -6 -33 -1 -73 -5 -89 -10 -22 -6 -28 -5 -24 6 2 7 24 18 48 22 l43 9
-6 51 c-16 137 -36 299 -46 367 -5 41 -12 102 -15 134 -3 33 -9 62 -12 65 -3
3 -3 -29 1 -71 6 -63 5 -78 -6 -78 -8 0 -22 26 -33 63 -24 74 -43 99 -58 74
-5 -10 -20 -27 -33 -40 -13 -12 -25 -33 -27 -47 -3 -28 -21 -30 -27 -4 -3 16
-24 44 -33 44 -2 0 -1 -37 1 -82 2 -57 10 -95 23 -122 16 -31 17 -40 7 -47 -8
-4 -11 -11 -7 -14 9 -9 58 36 58 54 0 11 6 9 21 -8 18 -19 19 -25 8 -32 -8 -5
-20 -9 -27 -9 -7 0 -10 -5 -7 -10 3 -6 -4 -14 -17 -19 -13 -6 -19 -10 -14 -10
5 -1 3 -8 -4 -16 -8 -10 -10 -28 -5 -52 4 -21 8 -68 10 -106 6 -103 9 -108 61
-106 24 2 47 -1 51 -5 11 -11 -18 -26 -52 -26 -30 0 -75 -24 -75 -39 0 -13
102 -42 140 -40 19 1 100 -3 180 -9 80 -6 287 -16 460 -22 173 -5 352 -13 398
-16 l83 -6 -1 -201 c0 -130 4 -234 14 -292 8 -49 12 -93 9 -97 -2 -5 -121 -8
-264 -8 l-260 0 71 -68 c38 -37 70 -75 70 -83 0 -9 -18 -33 -40 -53 -46 -41
-53 -40 -125 21 -50 43 -150 93 -186 93 -16 0 -30 -7 -34 -17 -4 -10 -10 -91
-12 -179 l-5 -161 157 -8 157 -7 -6 -60 c-9 -72 -14 -88 -31 -88 -23 0 -27
-38 -10 -83 15 -40 15 -58 0 -243 -31 -372 -43 -549 -39 -555 2 -4 124 -10
271 -13 338 -8 503 -15 514 -22 5 -3 9 -103 9 -222 0 -200 16 -541 25 -550 6
-7 129 64 146 85 25 28 39 60 60 134 10 38 19 70 19 72 0 2 -13 2 -29 -1 -16
-2 -31 0 -34 5 -3 4 -1 60 4 123 5 63 9 184 9 269 -1 137 -3 163 -25 224 -27
78 -50 107 -114 144 -39 24 -61 27 -225 39 -193 15 -312 38 -345 68 -37 33
-44 78 -36 229 3 78 9 145 12 150 10 16 4 363 -7 391 -5 15 -11 63 -13 107
l-2 79 41 41 c39 38 46 41 110 46 51 4 84 14 128 37 101 54 105 59 147 244 36
154 40 212 30 404 -9 163 -18 241 -36 316 -8 32 -56 29 -109 -7 -121 -84 -282
-61 -383 54 -63 72 -86 141 -80 233 9 119 69 215 168 265 30 15 67 38 82 52
l28 25 -36 66 c-19 37 -35 75 -35 86 0 10 -4 18 -9 18 -18 0 -20 -32 -6 -73 9
-23 17 -46 18 -52 1 -5 -36 -14 -83 -18 -110 -11 -134 -2 -161 60 -41 96 -52
113 -92 146 -47 39 -76 50 -95 39z m-527 -532 c3 -5 1 -10 -4 -10 -6 0 -11 5
-11 10 0 6 2 10 4 10 3 0 8 -4 11 -10z m-4 -254 c-9 -11 -9 -15 1 -19 10 -4
11 -7 1 -18 -21 -21 -38 3 -21 30 7 11 17 21 22 21 4 0 3 -6 -3 -14z"/>
<path d="M5800 6610 c0 -5 5 -10 11 -10 5 0 7 5 4 10 -3 6 -8 10 -11 10 -2 0
-4 -4 -4 -10z"/>
<path d="M4095 6596 c-11 -8 -40 -20 -63 -27 -38 -11 -43 -15 -37 -36 4 -17 1
-23 -12 -23 -10 0 -27 -7 -37 -15 -15 -11 -16 -17 -8 -28 14 -16 6 -27 -18
-27 -10 0 -23 -6 -29 -14 -19 -23 3 -53 44 -60 21 -4 35 -13 35 -21 0 -16 -16
-21 -22 -6 -2 5 -13 5 -27 0 -23 -9 -24 -10 -5 -24 23 -17 44 -19 44 -4 0 18
31 -12 42 -41 10 -24 11 -24 18 -5 4 11 3 25 -2 32 -6 7 -5 14 2 18 6 4 12 5
14 4 1 -2 11 -21 21 -43 11 -21 27 -41 36 -43 11 -3 14 -12 11 -29 -3 -15 0
-24 8 -24 7 0 18 -7 25 -17 7 -9 17 -13 23 -9 15 9 16 36 2 36 -5 0 -10 9 -10
20 0 12 -11 32 -25 46 -14 14 -25 28 -25 31 0 4 -7 14 -15 23 -13 15 -13 23 4
76 10 32 26 92 35 132 20 91 14 108 -29 78z m-85 -216 c-19 -13 -30 -13 -30 0
0 6 10 10 23 10 18 0 19 -2 7 -10z"/>
<path d="M7022 6545 c-27 -45 -38 -55 -53 -50 -15 5 -19 2 -19 -15 0 -22 27
-70 40 -70 4 0 48 24 98 53 49 28 104 60 121 69 17 9 31 21 31 26 0 13 -101
42 -146 42 -37 0 -41 -3 -72 -55z"/>
<path d="M5820 6585 c0 -5 5 -17 10 -25 5 -8 10 -10 10 -5 0 6 -5 17 -10 25
-5 8 -10 11 -10 5z"/>
<path d="M4900 6559 c0 -5 5 -7 10 -4 6 3 10 8 10 11 0 2 -4 4 -10 4 -5 0 -10
-5 -10 -11z"/>
<path d="M6710 6540 c0 -6 7 -10 15 -10 8 0 15 2 15 4 0 2 -7 6 -15 10 -8 3
-15 1 -15 -4z"/>
<path d="M8310 6510 c-12 -8 -10 -10 8 -10 13 0 20 4 17 10 -7 12 -6 12 -25 0z"/>
<path d="M4254 6489 c-81 -25 -80 -20 -47 -207 3 -18 14 -37 24 -43 15 -7 19
-21 19 -57 0 -51 28 -106 47 -94 14 9 28 102 20 135 -4 15 -23 31 -52 46 -25
12 -45 29 -45 37 0 17 2 17 47 -1 45 -19 43 -20 43 15 0 23 4 30 20 30 11 0
28 9 37 20 10 11 23 20 30 20 7 0 13 5 13 10 0 6 7 10 15 10 22 0 18 21 -5 27
-10 3 -22 15 -26 27 -16 49 -48 55 -140 25z m36 -279 c0 -5 -4 -10 -10 -10 -5
0 -10 5 -10 10 0 6 5 10 10 10 6 0 10 -4 10 -10z"/>
<path d="M4746 6485 c-20 -19 -25 -30 -20 -50 6 -24 37 -35 48 -16 3 4 16 6
29 4 16 -3 26 1 31 12 7 20 0 35 -19 35 -7 0 -17 9 -20 20 -8 26 -16 25 -49
-5z"/>
<path d="M5227 6504 c-9 -9 -9 -158 0 -168 4 -4 6 -23 4 -42 -3 -40 6 -44 19
-9 8 20 14 24 33 19 37 -9 41 19 6 55 -24 25 -28 37 -24 66 2 19 0 35 -5 35
-4 0 -12 12 -17 26 -5 14 -12 22 -16 18z m43 -164 c0 -5 -4 -10 -10 -10 -5 0
-10 5 -10 10 0 6 5 10 10 10 6 0 10 -4 10 -10z"/>
<path d="M6580 6501 c0 -6 5 -13 10 -16 6 -3 10 1 10 9 0 9 -4 16 -10 16 -5 0
-10 -4 -10 -9z"/>
<path d="M6890 6482 c0 -11 75 -204 88 -227 11 -20 11 -20 12 1 0 11 -6 42
-14 67 -7 25 -12 48 -9 51 3 2 -11 29 -31 60 -34 53 -46 66 -46 48z"/>
<path d="M4700 6450 c-8 -26 -7 -41 2 -32 6 6 8 16 5 24 -3 7 -6 11 -7 8z"/>
<path d="M5317 6443 c-4 -3 -7 -17 -7 -29 0 -17 4 -22 15 -18 10 4 15 0 15
-12 0 -15 2 -16 9 -5 6 10 4 25 -5 43 -16 30 -17 31 -27 21z"/>
<path d="M3563 6387 c-17 -7 -35 -15 -39 -19 -8 -9 54 -132 145 -288 55 -94
58 -98 81 -87 12 7 22 15 21 19 -1 5 -4 21 -7 37 -4 16 -12 32 -20 35 -17 7
-18 32 -1 40 6 3 -1 4 -18 3 -27 -2 -30 1 -33 28 -2 17 -12 49 -23 72 -10 24
-19 50 -19 58 0 14 -11 19 -35 16 -5 -1 -2 5 8 12 26 21 20 30 -16 24 -19 -3
-40 -1 -48 3 -16 10 -15 11 31 39 38 23 24 27 -27 8z m167 -337 c0 -5 -5 -10
-11 -10 -5 0 -7 5 -4 10 3 6 8 10 11 10 2 0 4 -4 4 -10z"/>
<path d="M5370 6380 c0 -11 -5 -20 -12 -20 -9 0 -9 -3 0 -12 10 -10 17 -8 33
9 22 22 19 43 -7 43 -8 0 -14 -9 -14 -20z"/>
<path d="M6561 6378 c-2 -25 63 -158 93 -193 l27 -30 -21 40 c-11 22 -29 54
-40 70 -10 17 -19 37 -19 46 -1 9 -7 22 -15 29 -8 6 -17 21 -19 33 -3 14 -5
16 -6 5z"/>
<path d="M4757 6374 c-6 -6 -2 -38 9 -74 5 -14 14 -2 40 49 10 20 -32 42 -49
25z"/>
<path d="M3830 6350 c0 -5 5 -10 10 -10 6 0 10 5 10 10 0 6 -4 10 -10 10 -5 0
-10 -4 -10 -10z"/>
<path d="M8140 6343 c0 -9 -7 -25 -17 -35 -15 -17 -15 -18 5 -18 24 0 45 31
36 54 -8 21 -24 20 -24 -1z"/>
<path d="M7054 6240 c1 -43 -4 -74 -11 -81 -19 -19 -16 -39 6 -39 20 0 61 44
61 64 -1 6 -9 29 -20 51 -11 22 -19 45 -20 52 0 6 -4 14 -9 17 -4 3 -8 -26 -7
-64z"/>
<path d="M5297 6270 c3 -11 9 -20 13 -20 5 0 6 9 3 20 -3 11 -9 20 -13 20 -5
0 -6 -9 -3 -20z"/>
<path d="M4413 6258 c-12 -14 -23 -44 -27 -73 -3 -30 -2 -44 3 -36 6 10 13 6
27 -18 10 -17 24 -33 32 -36 22 -8 63 27 58 50 -9 42 -51 135 -62 135 -6 0
-20 -10 -31 -22z"/>
<path d="M5310 6073 c0 -5 7 -16 14 -26 16 -20 32 -6 22 18 -5 15 -36 21 -36
8z"/>
<path d="M4519 6044 c25 -31 26 -58 6 -97 -7 -15 -13 -45 -12 -67 1 -27 -5
-46 -20 -62 -14 -16 -22 -41 -25 -79 -4 -48 -1 -58 15 -68 26 -17 31 -9 31 57
1 31 6 66 13 77 12 20 12 20 26 1 37 -50 49 42 23 167 -16 75 -29 97 -58 97
-19 0 -19 -1 1 -26z"/>
<path d="M4268 6009 c-22 -12 -23 -57 -3 -86 9 -12 29 -55 45 -94 31 -76 28
-99 -10 -99 -10 0 -55 -16 -99 -36 -80 -36 -82 -38 -114 -103 l-32 -66 1 -190
c1 -281 11 -391 40 -441 21 -37 50 -61 61 -50 2 2 -3 59 -12 127 -9 68 -23
184 -31 256 l-16 133 43 59 c24 33 49 66 54 75 9 14 29 15 188 5 99 -6 181 -8
184 -5 3 2 -14 16 -37 31 l-42 27 23 16 c13 9 30 22 37 29 7 7 22 13 33 13 11
0 18 4 14 9 -3 5 -1 12 5 16 13 8 13 55 1 55 -6 0 -16 -8 -23 -18 -15 -21 -80
-62 -97 -62 -7 0 -19 17 -28 38 -8 20 -38 80 -67 132 -28 52 -62 127 -76 166
-22 63 -27 71 -42 63z"/>
<path d="M5274 5989 c-7 -12 15 -31 28 -23 4 3 8 12 8 20 0 17 -26 19 -36 3z"/>
<path d="M5860 5970 c0 -5 4 -10 9 -10 6 0 13 5 16 10 3 6 -1 10 -9 10 -9 0
-16 -4 -16 -10z"/>
<path d="M5381 5944 c0 -11 3 -14 6 -6 3 7 2 16 -1 19 -3 4 -6 -2 -5 -13z"/>
<path d="M5311 5909 c-28 -53 -28 -74 -1 -57 16 10 25 9 50 -5 16 -10 35 -15
40 -12 17 11 11 30 -12 40 -13 6 -25 19 -27 29 -2 11 -9 25 -16 33 -11 10 -17
5 -34 -28z"/>
<path d="M4165 5900 c-16 -11 -52 -27 -80 -36 -44 -14 -57 -26 -104 -90 -46
-64 -58 -74 -85 -75 -23 -1 -25 -3 -8 -6 27 -5 28 -22 3 -54 -10 -13 -28 -44
-41 -69 -21 -41 -23 -60 -28 -280 -7 -332 10 -463 73 -558 49 -74 56 -118 62
-388 6 -243 5 -252 -17 -320 -29 -85 -50 -105 -171 -166 -191 -95 -321 -255
-353 -434 -23 -128 -28 -261 -16 -440 10 -145 10 -168 -3 -182 -25 -24 -44 -8
-51 45 -3 26 -9 140 -12 253 -7 206 3 309 38 419 17 53 89 172 133 220 54 58
147 128 209 158 121 56 141 70 164 111 35 63 41 128 32 378 -8 252 -2 220 -80
374 -36 71 -52 230 -48 472 2 113 0 204 -4 202 -11 -7 -40 -104 -48 -163 -5
-31 -16 -101 -25 -156 -14 -84 -16 -143 -11 -370 4 -159 3 -309 -3 -365 -9
-84 -37 -213 -56 -262 -15 -38 14 -16 33 25 72 158 72 157 72 291 0 72 4 126
9 126 6 0 17 -10 25 -22 12 -17 16 -48 16 -126 0 -108 -13 -156 -83 -290 -21
-41 -147 -172 -165 -172 -5 0 -34 -35 -65 -78 -31 -43 -71 -94 -90 -113 -114
-117 -213 -247 -222 -292 -4 -18 -13 -43 -21 -57 -28 -52 -44 -177 -45 -357
-1 -164 -2 -175 -15 -145 -22 50 -40 279 -27 336 6 26 7 49 3 51 -27 17 -200
-435 -187 -487 16 -62 77 -94 200 -105 37 -3 67 -7 67 -9 0 -15 -67 -174 -80
-189 -26 -31 -47 -83 -71 -176 -12 -46 -32 -106 -44 -134 -12 -27 -39 -89 -60
-138 -21 -48 -44 -92 -52 -98 -7 -6 -13 -15 -13 -20 0 -16 -157 -237 -204
-288 -30 -32 -104 -72 -158 -85 -15 -3 -45 -24 -67 -45 -42 -41 -45 -65 -13
-95 32 -28 199 -94 284 -112 76 -16 93 -16 144 -4 81 18 160 58 192 96 46 54
62 74 62 79 0 2 18 31 41 63 44 66 86 109 95 99 3 -3 -6 -38 -19 -79 -14 -40
-33 -113 -43 -162 -17 -85 -17 -89 1 -102 26 -19 115 -35 154 -26 41 9 75 65
101 162 27 102 90 291 111 331 10 20 24 67 30 106 11 61 10 82 -10 184 -31
163 -29 217 14 338 8 24 15 45 15 46 0 5 -78 36 -120 48 l-45 13 3 43 c1 24 7
52 12 62 10 18 12 18 53 0 58 -25 399 -131 421 -131 10 0 70 -17 134 -39 139
-46 293 -68 527 -75 203 -7 246 -16 375 -81 58 -29 116 -56 130 -60 14 -4 65
-23 113 -42 171 -66 294 -54 492 48 61 30 148 68 195 83 47 15 103 34 125 41
22 8 76 23 120 35 44 12 100 29 125 38 51 18 120 60 120 73 0 5 -21 5 -47 1
-65 -9 -835 -9 -1333 1 -368 8 -439 12 -775 48 -203 21 -377 43 -385 48 -16 9
-34 92 -50 241 -20 183 -39 376 -46 464 l-7 89 219 -6 c522 -17 720 -18 694
-5 -27 12 -84 37 -137 58 -36 14 -44 30 -15 30 10 0 23 5 30 12 7 7 12 9 12 4
0 -9 57 22 84 46 11 10 45 20 78 24 42 5 62 12 68 25 12 22 13 279 1 298 -5 8
-16 11 -25 8 -9 -4 -16 -3 -16 1 0 4 -11 12 -25 19 -14 6 -23 8 -20 3 3 -4 -2
-11 -10 -14 -12 -4 -15 1 -13 28 2 28 7 35 37 46 20 7 46 24 59 37 20 22 22
34 22 137 0 95 3 115 16 120 23 9 204 7 205 -1 2 -12 7 -76 8 -100 1 -13 6
-23 12 -23 18 0 59 49 59 71 0 12 7 19 20 19 22 0 28 25 8 33 -7 3 -2 6 12 7
31 2 -61 31 -180 56 -47 10 -110 28 -140 41 -61 25 -59 17 -40 136 12 73 28
126 29 95 2 -33 16 -18 34 33 18 50 18 51 -2 65 -17 12 -18 19 -9 44 8 25 14
29 32 24 32 -10 43 -24 19 -24 -12 0 -25 -4 -28 -10 -3 -5 -4 -10 -1 -10 4 0
49 -12 102 -26 121 -32 184 -29 79 4 -84 26 -125 44 -125 55 0 18 35 67 47 67
7 0 13 7 13 15 0 8 -4 15 -10 15 -16 0 -12 38 9 79 21 40 19 69 -7 109 -16 24
-21 26 -39 14 -15 -9 -54 -158 -47 -176 3 -7 0 -26 -7 -42 -6 -16 -13 -23 -16
-16 -4 9 -72 12 -296 11 l-292 0 54 -19 c65 -22 80 -36 91 -86 23 -99 15 -129
-62 -225 -38 -49 -46 -109 -58 -429 -14 -389 -28 -460 -92 -460 -12 0 -40 -11
-62 -24 -60 -35 -151 -50 -257 -43 -107 8 -139 -4 -167 -61 -35 -69 -45 -151
-38 -304 5 -130 11 -199 32 -384 7 -65 -8 -134 -30 -134 -17 0 -45 239 -62
531 -7 129 6 226 42 315 31 75 116 112 212 94 79 -16 179 -1 265 40 48 23 72
40 79 59 6 14 15 147 19 296 10 344 20 438 53 502 13 27 32 55 41 63 32 27 44
63 37 119 -8 61 -9 62 -108 90 -123 36 -162 87 -175 231 -4 47 -12 128 -18
180 -21 189 -10 343 31 430 39 83 62 105 152 145 80 36 86 40 86 68 0 33 -35
97 -53 97 -7 0 -25 -9 -42 -20z m391 -2055 c2 -16 -21 -21 -30 -6 -4 5 -3 17
0 26 7 18 26 6 30 -20z m-136 -375 c0 -5 -4 -10 -10 -10 -5 0 -10 5 -10 10 0
6 5 10 10 10 6 0 10 -4 10 -10z m-1102 -1634 c11 -10 40 -109 42 -138 0 -5 -9
-8 -20 -8 -12 0 -32 -11 -46 -25 -14 -14 -27 -25 -30 -25 -6 0 -25 48 -30 79
-3 13 -10 33 -15 43 -13 25 -2 75 19 88 20 12 61 4 80 -14z m66 -225 c3 -5 -5
-12 -19 -15 -14 -4 -32 -17 -41 -31 -18 -27 -34 -25 -34 5 0 34 78 68 94 41z"/>
<path d="M3250 1835 c-14 -16 -10 -18 14 -9 9 3 16 10 16 15 0 14 -16 11 -30
-6z"/>
<path d="M6200 5860 c0 -11 5 -20 10 -20 6 0 10 9 10 20 0 11 -4 20 -10 20 -5
0 -10 -9 -10 -20z"/>
<path d="M6240 5829 c0 -3 16 -11 36 -17 31 -9 35 -8 32 6 -2 12 -13 17 -36
17 -17 0 -32 -3 -32 -6z"/>
<path d="M6180 5797 c0 -19 16 -31 24 -18 3 5 -1 14 -9 21 -12 10 -15 10 -15
-3z"/>
<path d="M3088 5773 c-53 -3 -78 -8 -82 -18 -7 -19 13 -145 29 -174 l13 -25
17 35 c21 42 47 64 103 90 38 17 67 19 234 19 105 0 189 2 186 5 -3 3 -41 12
-84 19 -43 8 -121 24 -171 35 -51 12 -110 20 -130 19 -21 -1 -72 -4 -115 -5z"/>
<path d="M6265 5719 c3 -30 9 -70 12 -89 6 -33 6 -33 13 -10 6 22 11 25 47 23
45 -2 109 -30 134 -59 44 -50 59 -101 59 -197 0 -80 3 -98 21 -121 11 -14 24
-24 28 -21 5 2 11 52 15 111 8 119 22 163 69 213 61 64 89 70 307 71 108 0
188 4 180 9 -26 14 -264 30 -520 36 -267 5 -350 12 -350 28 0 6 7 19 17 29 9
10 11 18 5 18 -6 0 -18 3 -27 6 -14 6 -15 0 -10 -47z"/>
<path d="M7380 5731 c0 -12 29 -41 40 -41 19 0 19 19 0 25 -11 3 -20 11 -20
16 0 5 -4 9 -10 9 -5 0 -10 -4 -10 -9z"/>
<path d="M6296 5385 c6 -185 2 -230 -36 -409 -23 -108 -48 -172 -77 -198 -38
-34 -151 -88 -184 -88 -58 -1 -113 -18 -132 -42 -16 -19 -18 -34 -14 -93 3
-38 10 -92 16 -120 5 -27 10 -87 10 -132 1 -46 4 -83 9 -83 4 0 33 25 65 55
51 50 57 59 57 96 0 56 22 87 140 198 77 73 112 115 155 186 30 51 55 97 55
103 0 6 7 31 15 56 13 39 13 58 0 170 -8 69 -21 152 -29 183 -8 32 -19 103
-26 157 -20 170 -30 154 -24 -39z"/>
<path d="M4675 5520 c3 -5 13 -10 21 -10 8 0 12 5 9 10 -3 6 -13 10 -21 10 -8
0 -12 -4 -9 -10z"/>
<path d="M7674 5356 c-76 -61 -94 -72 -110 -63 -16 8 -17 7 -6 -4 16 -18 15
-44 -3 -59 -12 -10 -21 -9 -48 3 l-32 16 -3 -29 c-2 -17 -12 -35 -23 -40 -24
-13 -24 -27 1 -68 l20 -33 26 31 c14 16 23 37 20 45 -3 9 0 15 9 15 8 0 15 5
15 11 0 5 4 8 9 4 12 -7 80 27 81 40 0 6 23 28 50 49 28 21 50 46 50 55 0 24
20 41 47 41 13 0 23 5 23 11 0 15 -19 49 -28 49 -4 0 -49 -33 -98 -74z"/>
<path d="M4246 5331 c-5 -7 -14 -74 -42 -303 -6 -46 -5 -48 19 -48 23 0 25 4
33 83 l9 82 60 3 c54 3 74 12 75 35 0 4 -27 7 -60 7 -67 0 -73 6 -62 60 8 34
9 35 67 40 53 4 60 8 63 28 3 21 1 22 -77 22 -44 0 -82 -4 -85 -9z"/>
<path d="M4485 5328 c-10 -32 -25 -163 -25 -223 0 -60 3 -69 28 -95 54 -54
157 -49 199 9 23 30 49 156 55 261 3 49 1 55 -17 55 -18 0 -21 -13 -38 -130
-12 -85 -24 -139 -36 -154 -36 -50 -103 -48 -137 4 -16 25 -16 33 0 146 9 66
14 124 11 130 -9 13 -35 11 -40 -3z"/>
<path d="M4810 5321 c0 -14 10 -20 41 -25 l41 -7 -5 -42 c-19 -134 -19 -177
-4 -177 25 0 34 23 41 105 10 111 12 115 50 115 35 0 62 21 51 40 -4 6 -49 10
-111 10 -95 0 -104 -2 -104 -19z"/>
<path d="M5085 5328 c-8 -24 -25 -169 -25 -214 0 -35 3 -44 18 -44 14 0 20 19
35 126 9 69 15 130 12 135 -9 13 -35 11 -40 -3z"/>
<path d="M5306 5328 c-3 -7 -12 -67 -20 -132 -9 -69 -23 -129 -32 -144 -13
-20 -14 -26 -3 -33 21 -13 27 -11 44 14 16 25 42 159 47 247 2 45 0 55 -15 58
-9 2 -19 -2 -21 -10z"/>
<path d="M5446 5328 c-3 -7 -12 -76 -20 -153 -9 -77 -19 -152 -22 -167 -5 -25
-3 -28 19 -28 24 0 26 4 32 64 12 111 23 111 85 4 24 -43 43 -64 58 -66 29 -4
28 0 -13 68 -37 61 -44 90 -21 90 8 0 26 14 40 31 45 53 30 130 -29 154 -43
19 -124 20 -129 3z m122 -50 c7 -7 12 -27 12 -44 0 -38 -29 -64 -72 -64 -27 0
-28 2 -28 53 0 30 3 57 7 60 11 12 68 8 81 -5z"/>
<path d="M5741 5317 c-8 -19 -14 -70 -38 -284 l-6 -53 92 0 c84 0 91 1 91 20
0 18 -7 20 -60 20 -70 0 -73 4 -62 75 l7 50 65 5 c51 4 66 9 68 23 3 15 -5 17
-58 17 -68 0 -76 8 -66 65 l7 35 58 0 c39 0 63 5 71 15 21 26 0 35 -81 35 -73
0 -80 -2 -88 -23z"/>
<path d="M8805 5330 c3 -5 11 -10 16 -10 6 0 7 5 4 10 -3 6 -11 10 -16 10 -6
0 -7 -4 -4 -10z"/>
<path d="M6590 5197 c0 -8 7 -59 15 -116 9 -56 16 -134 16 -174 1 -39 3 -75 6
-79 2 -5 14 -3 25 3 18 10 20 17 15 68 -4 31 -11 98 -16 149 -7 64 -16 103
-31 127 -23 38 -30 43 -30 22z"/>
<path d="M8385 5180 c-11 -18 15 -50 40 -50 14 0 25 5 25 10 0 6 -4 10 -10 10
-5 0 -19 9 -30 20 -10 10 -22 15 -25 10z"/>
<path d="M7650 5166 c0 -9 7 -19 15 -23 25 -9 27 2 5 22 -18 17 -20 17 -20 1z"/>
<path d="M7758 5147 l-27 -22 -3 -230 c-3 -215 -4 -233 -25 -271 -12 -23 -37
-54 -55 -69 -62 -52 -84 -56 -300 -55 -157 0 -199 -2 -196 -12 7 -20 61 -26
330 -39 187 -9 251 -9 262 0 24 20 45 123 55 271 9 143 4 450 -8 450 -3 0 -18
-10 -33 -23z"/>
<path d="M7250 5150 c0 -5 4 -10 9 -10 6 0 13 5 16 10 3 6 -1 10 -9 10 -9 0
-16 -4 -16 -10z"/>
<path d="M7200 5118 c-26 -21 -60 -67 -60 -81 0 -5 10 -5 23 -1 12 4 34 7 48
6 25 -2 26 0 25 43 -1 24 -4 47 -7 49 -2 2 -15 -5 -29 -16z"/>
<path d="M7349 5088 c-1 -7 -1 -16 0 -20 0 -5 -8 -8 -19 -8 -12 0 -20 -7 -20
-16 0 -12 6 -15 23 -10 12 3 30 6 40 6 10 0 17 8 17 18 0 30 -38 58 -41 30z"/>
<path d="M8790 5075 c13 -14 26 -25 28 -25 3 0 -5 11 -18 25 -13 14 -26 25
-28 25 -3 0 5 -11 18 -25z"/>
<path d="M7290 5015 c0 -8 -4 -15 -10 -15 -5 0 -27 -15 -47 -33 -21 -19 -46
-36 -55 -40 -20 -7 -14 -37 8 -37 8 0 14 -4 14 -10 0 -18 22 -10 27 9 3 11 10
18 17 15 17 -7 46 28 52 62 3 16 10 32 16 35 12 7 2 29 -13 29 -5 0 -9 -7 -9
-15z"/>
<path d="M7516 5005 c4 -9 15 -20 26 -26 16 -9 25 -7 41 10 25 25 15 41 -11
18 -23 -21 -33 -22 -26 -2 4 10 0 15 -15 15 -14 0 -19 -5 -15 -15z"/>
<path d="M8587 4975 c-4 -8 -2 -17 3 -20 6 -4 10 3 10 14 0 25 -6 27 -13 6z"/>
<path d="M2991 4922 c-21 -49 -25 -77 -29 -209 -5 -175 -12 -163 90 -142 74
16 78 23 36 67 -64 67 -73 93 -73 224 0 65 0 118 0 118 0 0 -11 -26 -24 -58z"/>
<path d="M6360 4757 c-45 -94 -99 -164 -215 -280 -59 -59 -78 -87 -57 -87 7 0
345 259 371 284 11 12 9 27 -15 95 -16 44 -31 81 -34 81 -3 0 -25 -42 -50 -93z"/>
<path d="M7246 4402 c14 -87 -51 -157 -138 -149 -58 5 -94 27 -115 72 -9 19
-20 35 -25 35 -4 0 -19 -17 -33 -39 -24 -35 -60 -61 -107 -75 -29 -9 -21 -23
17 -30 126 -24 151 -208 35 -256 -38 -16 -36 -38 7 -65 44 -29 75 -97 61 -138
-6 -18 -15 -38 -21 -45 -7 -9 -5 -37 6 -90 34 -157 77 -412 97 -572 11 -91 27
-201 35 -245 8 -44 21 -127 30 -185 8 -58 22 -148 31 -200 9 -52 18 -126 20
-165 3 -38 9 -74 14 -79 7 -7 10 -3 11 10 0 10 7 -7 16 -40 12 -47 13 -63 3
-81 -9 -16 -10 -38 -4 -72 4 -26 8 -57 9 -68 4 -49 18 -105 26 -105 5 0 9 9 9
20 0 11 5 20 10 20 6 0 10 12 11 28 1 26 2 25 20 -13 10 -22 18 -53 16 -69 -2
-26 -7 -30 -52 -41 -66 -17 -130 -21 -182 -11 -36 7 -44 12 -53 42 -7 20 -9
55 -5 82 3 28 -1 88 -10 147 -11 65 -14 124 -10 170 4 49 1 85 -9 118 -8 27
-20 90 -26 140 -24 197 -83 375 -209 632 -33 66 -69 150 -82 187 -12 37 -23
67 -24 65 -6 -7 -12 -417 -6 -417 9 0 41 137 41 178 0 17 4 34 10 37 11 7 27
-29 79 -175 21 -58 59 -153 84 -212 41 -96 48 -121 62 -247 15 -127 15 -144 1
-192 -9 -29 -16 -82 -16 -119 0 -42 -9 -98 -27 -155 -30 -102 -35 -195 -13
-239 9 -18 35 -41 63 -55 45 -24 52 -33 87 -113 27 -63 55 -106 101 -158 l64
-70 64 2 c45 2 66 8 72 18 27 55 59 142 59 163 0 44 8 54 43 50 69 -9 246 -46
327 -70 47 -13 123 -34 170 -45 l84 -20 26 33 27 32 74 -7 c41 -4 133 -16 204
-27 228 -34 295 -42 301 -36 16 15 68 672 63 777 -5 77 -6 77 -147 79 l-94 1
-11 30 c-8 21 -18 30 -34 30 -23 0 -23 2 -23 107 0 58 -4 134 -9 167 -6 34
-15 103 -21 155 -17 133 -66 270 -117 328 -39 44 -153 137 -192 158 -18 9 -72
21 -119 26 l-87 9 -43 -47 c-23 -27 -51 -64 -62 -84 -10 -19 -26 -41 -34 -48
-9 -8 -16 -19 -16 -26 0 -7 -6 -15 -13 -18 -24 -9 -106 -126 -142 -202 -21
-45 -37 -96 -40 -131 -6 -62 -19 -94 -38 -93 -7 0 -77 14 -157 32 l-144 32
-22 125 c-12 69 -33 168 -47 220 -14 52 -27 111 -30 131 l-5 36 128 16 c90 12
158 15 229 11 98 -7 102 -6 128 17 27 25 58 87 49 97 -3 3 -6 0 -6 -6 0 -25
-73 -62 -122 -62 -41 0 -52 5 -88 38 -36 35 -40 44 -40 88 0 62 25 105 75 128
73 35 160 -6 188 -86 l14 -43 8 58 c8 64 2 136 -16 168 -10 19 -12 19 -50 -15
-35 -32 -45 -36 -95 -36 -50 0 -60 4 -89 33 -62 62 -55 157 15 205 30 21 43
23 93 19 49 -4 58 -3 53 10 -3 8 -6 19 -6 25 0 7 -15 8 -40 4 -51 -8 -97 11
-134 55 -25 29 -28 39 -24 88 4 47 10 59 42 89 36 32 41 34 99 30 l62 -3 18
39 c22 46 18 53 -15 26 -87 -68 -218 2 -218 116 0 37 -3 44 -20 44 -18 0 -20
-5 -14 -38z m-55 -205 c89 -59 86 -172 -4 -227 -39 -24 -78 -25 -124 -3 -47
22 -73 66 -73 125 0 104 114 164 201 105z m-4 -294 c106 -50 91 -206 -23 -243
-80 -27 -174 42 -174 127 0 66 67 133 133 133 16 0 45 -8 64 -17z m29 -314
c31 -29 54 -71 54 -99 0 -11 -9 -39 -21 -61 -28 -55 -94 -87 -149 -70 -47 14
-98 65 -106 106 -8 44 22 113 60 137 44 27 126 21 162 -13z m798 -384 c63 -30
135 -98 165 -155 49 -92 69 -194 77 -394 l6 -128 -44 7 c-68 12 -88 23 -99 54
-11 30 -56 56 -92 54 -11 -1 -30 -12 -43 -24 -22 -21 -27 -21 -84 -10 -50 10
-296 88 -362 116 -23 9 -23 16 6 73 13 26 29 65 36 87 17 55 100 185 179 278
l66 79 65 -4 c45 -3 84 -13 124 -33z m280 -335 c42 -163 41 -527 -1 -665 -16
-51 -42 -92 -29 -45 4 14 14 95 22 180 20 198 10 451 -22 589 -14 57 14 3 30
-59z m-1084 -830 c0 -11 -4 -20 -10 -20 -5 0 -10 9 -10 20 0 11 5 20 10 20 6
0 10 -9 10 -20z"/>
<path d="M5118 4263 c12 -2 30 -2 40 0 9 3 -1 5 -23 4 -22 0 -30 -2 -17 -4z"/>
<path d="M6739 4162 c-26 -23 -31 -33 -25 -55 9 -38 20 -34 40 16 l17 42 19
-40 c13 -25 18 -31 15 -15 -3 14 -8 37 -11 53 -8 34 -16 34 -55 -1z"/>
<path d="M5877 4113 c-11 -18 -19 -328 -9 -354 7 -17 23 -29 52 -38 75 -22
214 -41 311 -41 109 0 174 -16 239 -59 24 -17 45 -29 47 -27 2 1 -1 35 -6 75
-11 84 -26 106 -85 122 -23 6 -58 20 -79 30 -36 19 -39 19 -67 2 -17 -9 -30
-20 -30 -24 0 -3 -12 -11 -26 -18 -22 -10 -31 -9 -53 5 -38 25 -112 109 -197
224 -45 60 -92 111 -97 103z"/>
<path d="M6429 3939 c-24 -17 -48 -35 -53 -40 -16 -15 26 -38 67 -39 44 0 92
27 78 44 -5 6 -11 22 -13 36 -4 36 -28 35 -79 -1z"/>
<path d="M5367 3921 c61 -92 74 -185 40 -270 -19 -47 -17 -57 10 -47 10 4 19
6 20 4 6 -9 73 69 73 84 0 10 4 18 10 18 17 0 23 50 10 78 -63 134 -89 163
-142 160 l-38 -2 17 -25z"/>
<path d="M4995 3890 c-4 -6 -11 -8 -16 -5 -19 12 -29 -50 -29 -175 0 -71 3
-135 6 -144 8 -21 50 -21 58 0 3 9 6 56 6 104 0 94 10 115 38 83 48 -54 121
-71 142 -34 14 28 4 46 -49 85 -25 19 -59 48 -75 65 -29 31 -69 41 -81 21z"/>
<path d="M3806 3232 c-4 -6 -1 -524 3 -569 1 -9 23 -13 76 -13 l75 0 0 115 0
115 55 0 55 0 0 65 0 65 -55 0 -55 0 0 45 0 45 60 0 61 0 -3 68 -3 67 -132 3
c-72 1 -134 -1 -137 -6z"/>
<path d="M4157 3234 c-4 -4 -7 -137 -7 -296 l0 -288 145 0 145 0 0 65 0 65
-32 1 c-18 1 -42 3 -53 4 -11 1 -28 2 -38 3 -15 2 -18 10 -15 45 l3 42 60 5
60 5 3 62 3 62 -63 3 -63 3 0 40 0 40 68 3 68 3 -3 67 -3 67 -136 3 c-74 1
-138 -1 -142 -4z"/>
<path d="M4570 3214 c-6 -14 -10 -36 -10 -48 0 -25 -46 -416 -56 -478 l-6 -38
86 0 86 0 0 58 c0 90 12 252 19 252 4 0 17 -70 31 -155 l24 -155 62 0 c72 0
63 -15 94 150 32 172 30 166 41 149 5 -7 9 -68 9 -134 0 -171 -3 -165 84 -165
40 0 75 2 77 4 2 3 -3 87 -13 188 -9 101 -20 221 -24 268 -11 133 -8 130 -108
130 -72 0 -87 -3 -95 -18 -5 -10 -20 -75 -32 -145 -12 -70 -24 -126 -25 -124
-2 2 -13 57 -24 123 -31 184 -16 164 -120 164 -88 0 -91 -1 -100 -26z"/>
<path d="M5295 3228 c-4 -12 -121 -502 -133 -556 -4 -23 -3 -23 74 -20 l79 3
5 30 c5 29 7 30 62 33 l57 3 7 -36 6 -35 80 0 c71 0 79 2 74 18 -3 9 -12 55
-22 102 -9 47 -22 112 -29 145 -7 33 -24 115 -38 183 -15 67 -29 127 -32 132
-9 15 -185 13 -190 -2z m113 -278 c7 -53 8 -98 3 -103 -5 -5 -19 -7 -32 -5
-28 4 -28 10 -9 136 7 45 16 79 20 75 4 -4 12 -51 18 -103z"/>
<path d="M5668 3233 c-2 -4 -2 -137 0 -295 l3 -288 135 0 134 0 0 65 0 65 -47
0 c-27 0 -54 4 -60 8 -9 6 -13 67 -15 227 l-3 220 -72 3 c-39 2 -73 -1 -75 -5z"/>
<path d="M5995 3228 c-3 -7 -4 -139 -2 -293 l2 -280 145 0 145 0 0 58 c0 33
-4 62 -10 65 -5 4 -35 7 -65 7 l-55 0 -3 47 -3 47 58 3 58 3 3 63 3 62 -61 0
-60 0 0 45 0 44 67 3 68 3 2 60 c1 38 -2 62 -10 67 -21 14 -277 10 -282 -4z"/>
<path d="M7152 2140 c0 -14 2 -19 5 -12 2 6 2 18 0 25 -3 6 -5 1 -5 -13z"/>
</g>
</svg>
